<?xml version="1.0" encoding="utf-8"?>
<!-- Generator: Adobe Illustrator 22.1.0, SVG Export Plug-In . SVG Version: 6.00 Build 0)  -->
<svg version="1.1" id="Layer_1" xmlns="http://www.w3.org/2000/svg" xmlns:xlink="http://www.w3.org/1999/xlink" x="0px" y="0px"
	 viewBox="0 0 397.1 136" style="enable-background:new 0 0 397.1 136;" xml:space="preserve">
<style type="text/css">
	.st0{display:none;}
	.st1{display:inline;}
	.st2{fill:#B7B7B7;}
	.st3{clip-path:url(#SVGID_2_);fill:#B7B7B7;}
	.st4{clip-path:url(#SVGID_4_);fill:none;stroke:#B7B7B7;stroke-width:0.1614;}
	.st5{clip-path:url(#SVGID_6_);fill:#B7B7B7;}
	.st6{clip-path:url(#SVGID_8_);fill:none;stroke:#B7B7B7;stroke-width:8.070201e-02;}
	.st7{clip-path:url(#SVGID_10_);fill:none;stroke:#B7B7B7;stroke-width:1.2912;}
	.st8{clip-path:url(#SVGID_12_);fill:none;stroke:#B7B7B7;stroke-width:1.2912;}
	.st9{fill:#323232;}
	.st10{fill:#393736;}
</style>
<g id="Logos_OFF" class="st0">
	<g id="Jonathan_Adler" class="st1">
		<g>
			<path class="st2" d="M107.6,69c0,0.6,0,1.5-0.5,2.1c-0.7,0.8-1.8,0.9-2.7,0.9h-1.6v-2.4h0.9c1,0,1.1-0.4,1.1-1v-7.7h2.8
				C107.6,60.9,107.6,69,107.6,69z"/>
			<path class="st2" d="M120.1,66.5c0,1-0.2,2.9-1.9,4.4c-1.2,1-2.6,1.3-3.6,1.3c-0.9,0-2.6-0.1-4-1.6c-1-1.1-1.5-2.6-1.5-4.1
				c0-1,0.2-3,1.9-4.4c1.3-1,2.6-1.3,3.6-1.3C118,60.7,120.1,63.4,120.1,66.5z M112,66.4c0,1.9,0.8,3.4,2.6,3.4
				c0.9,0,1.5-0.4,1.7-0.7c0.6-0.7,0.8-1.6,0.8-2.6c0-1.8-0.8-3.3-2.5-3.3C112.8,63.2,112,64.5,112,66.4z"/>
			<path class="st2" d="M131,60.9V72h-2.8l-4-6.6V72h-2.6V60.9h2.7l4,6.6v-6.6H131z"/>
			<path class="st2" d="M138.7,60.9l4.2,11.1h-3l-0.5-1.5h-4.1l-0.5,1.5H132l4-11.1H138.7z M136,68.4h2.7l-1.3-3.9L136,68.4z"/>
			<path class="st2" d="M147.4,63.3V72h-2.8v-8.7h-2.9V61h8.7v2.3H147.4z"/>
			<path class="st2" d="M157.9,72v-4.8h-3.7V72h-2.8V60.9h2.8v3.8h3.7v-3.8h2.8V72H157.9z"/>
			<path class="st2" d="M168.4,60.9l4.2,11.1h-3l-0.5-1.5H165l-0.5,1.5h-2.8l4-11.1H168.4z M165.7,68.4h2.7l-1.3-3.9L165.7,68.4z"/>
			<path class="st2" d="M182.9,60.9V72h-2.8l-4-6.6V72h-2.6V60.9h2.7l4,6.6v-6.6H182.9z"/>
			<path class="st2" d="M194.9,60.9l4.2,11.1h-3l-0.5-1.5h-4.1L191,72h-2.8l4-11.1H194.9z M192.2,68.4h2.7l-1.3-3.9L192.2,68.4z"/>
			<path class="st2" d="M202.3,60.9c2.7,0,4.7,0,6.1,1.4c0.8,0.8,1.5,2.2,1.5,4.2c0,0.7-0.1,1.4-0.3,2c-0.2,0.7-0.7,2.3-2.6,3
				c-1,0.4-2.1,0.4-4.1,0.4h-3V60.8L202.3,60.9L202.3,60.9z M202.8,63.4v6.2h1.1c1.2,0,2.5-0.1,2.9-1.8c0.1-0.3,0.1-0.7,0.1-1.1
				c0-0.5,0-1.1-0.2-1.6c-0.5-1.6-1.9-1.7-2.8-1.7C203.9,63.4,202.8,63.4,202.8,63.4z"/>
			<path class="st2" d="M218.8,69.5V72h-7.5V60.9h2.9v8.6H218.8z"/>
			<path class="st2" d="M228.9,69.6v2.3h-8.8V60.8h8.3V63h-5.5v1.8h4.4V67h-4.4v2.6H228.9z"/>
			<path class="st2" d="M234.7,60.9c1.2,0,2.7,0,3.8,1c0.7,0.6,1.2,1.5,1.2,2.7c0,1.4-0.7,2.7-2.2,3.2l2.3,4.2h-3.1l-2-3.7h-1.4V72
				h-2.8V60.9H234.7z M233.2,63.2V66h1c1,0,1.5,0,1.9-0.2c0.6-0.3,0.7-0.8,0.7-1.2c0-0.7-0.3-1-0.5-1.1c-0.4-0.3-1.3-0.3-2-0.3
				C234.3,63.2,233.2,63.2,233.2,63.2z"/>
		</g>
		<g>
			<g>
				<g>
					<polygon class="st2" points="267.7,64.6 266.1,64.6 263.2,67.7 263.2,60.9 261.9,60.9 261.9,72 263.2,72 263.2,69.4 
						264.1,68.4 266.7,72 268.3,72 264.9,67.5 					"/>
				</g>
				<g>
					<path class="st2" d="M269.1,64.6V72h1.3v-3.4c0-0.7,0-1.3,0.3-1.9c0.4-0.6,1-0.9,1.7-0.9c0.2,0,0.4,0,0.5,0v-1.4
						c-0.5,0-1.8,0-2.6,1.5v-1.4h-1.2L269.1,64.6L269.1,64.6z"/>
				</g>
				<path class="st2" d="M278.5,67.6v-0.2c0-0.8,0-2.1-1.7-2.1c-1.6,0-1.6,1.2-1.6,1.6l-1.3-0.1c0-0.3,0.1-0.7,0.3-1.1
					c0.4-0.8,1.3-1.3,2.6-1.3c0.7,0,1.6,0.2,2.2,0.6c0.8,0.7,0.8,1.5,0.8,2.5v2.4c0,0.7,0,1.1,0.5,1.1c0.2,0,0.3,0,0.4-0.1V72
					c-0.2,0-0.4,0.1-0.8,0.1c-0.6,0-1.2-0.2-1.3-1.1c-0.4,0.4-1.1,1.2-2.6,1.2s-2.5-0.9-2.5-2.1c0-0.4,0.1-0.8,0.3-1.1
					c0.4-0.6,1.2-1.1,3.4-1.3L278.5,67.6z M276.5,68.7c-1.4,0.3-1.6,0.8-1.6,1.3c0,0.6,0.5,1.1,1.4,1.1s1.6-0.3,2-1.1
					c0.2-0.4,0.2-0.6,0.2-1.7C278,68.4,277.3,68.5,276.5,68.7z"/>
				<g>
					<polygon class="st2" points="284.4,70.3 282.4,64.6 281.1,64.6 283.8,72 284.9,72 287.6,64.6 286.3,64.6 					"/>
				</g>
				<path class="st2" d="M295.4,69.7c-0.2,0.5-0.8,2.5-3.4,2.5c-2.2,0-3.6-1.5-3.6-4c0-2.8,2-3.9,3.6-3.9c1.4,0,2.8,0.8,3.3,2.6
					c0.1,0.6,0.1,1.2,0.1,1.5h-5.6c0,1.2,0.6,2.8,2.4,2.8c1.1,0,1.7-0.7,2-1.7L295.4,69.7z M294,67.6c-0.1-2-1.5-2.3-2.1-2.3
					c-1.1,0-2,0.8-2.1,2.3H294z"/>
				<g>
					<path class="st2" d="M298.7,62.2h-1.3v2.3h-1.2v1h1.2v4.8c0,1,0,1.7,1.4,1.7c0.5,0,1-0.1,1.2-0.1v-1c-0.3,0.1-0.6,0.2-0.8,0.2
						c-0.5,0-0.5-0.4-0.5-1.3v-4.3h1.4v-1h-1.4L298.7,62.2L298.7,62.2z"/>
				</g>
			</g>
			<rect x="250.6" y="60.6" class="st2" width="0.2" height="11.9"/>
		</g>
	</g>
	<g id="Echo" class="st1">
		<g>
			<path class="st2" d="M213.6,64.4c-0.1-1-0.6-1.3-0.9-1.3s-0.7,0.2-1.2,0.7c-0.2,0.2-0.4,0.5-0.6,0.7c-0.3,0.4-0.7,0.8-1.2,1.2
				c-1.2,0.8-2.3,1.2-3.7,1.6c-0.1,0-0.2,0.1-0.4,0.1c-0.3,0.1-0.7,0.2-1,0.2c-0.4,0-0.9-0.1-1-1.2c0-0.1,0-0.2,0-0.3
				c-0.1-0.4-0.1-0.8-0.4-1.2c-0.3-0.5-0.9-0.9-1.4-1.1s-0.9-0.2-1.3-0.2c-0.2,0-0.4,0-0.6,0s-0.3,0-0.5,0c-0.3,0-0.5,0-0.7-0.1
				c-0.3-0.1-0.6-0.2-0.8-0.3c-0.6-0.2-1.2-0.4-2-0.4c-0.9,0-2.5,0.2-3.7,0.9c-2.3,1.3-3.7,2.9-4.3,4.8c-0.3,1.2-0.8,2.3-1.8,3.1
				c-0.4,0.3-1.9,1.4-3.3,1.4c-0.2,0-0.4,0-0.6-0.1c-2-0.6-1.3-3.5-0.9-5.7c0.1-0.5,0.2-1,0.3-1.4c0.2-2.3-1.5-4.3-4.1-4.6
				c-0.3,0-0.7,0-1.2,0c-0.3,0-0.5,0-0.8,0c-0.6,0-0.8-0.1-0.9-0.2c-0.3-0.4,0.1-1.8,0.3-2.5c0-0.2,0.1-0.3,0.1-0.4
				c0.5-2.2,1.3-4.2,2.2-6.6c0.1-0.2,0.2-0.4,0.3-0.6c0.4-0.8,0.8-1.7,0.6-2.4c-0.2-0.6-0.9-0.9-1.8-0.9c-0.3,0-0.6,0-0.9,0.1
				c-1,0.3-1.6,1.5-2,2.4c-0.1,0.1-0.1,0.3-0.2,0.4c-0.6,1.3-0.9,2.6-1.2,3.9l-0.1,0.3c-0.1,0.6-0.3,1.2-0.5,1.9
				c-0.2,0.8-0.4,1.7-0.6,2.5c-0.4,2.1-0.9,4.2-1.4,6c-0.1,0.3-0.2,0.5-0.2,0.8c-0.4,1.5-0.9,3.2-1.9,4.4c-1.1,1.4-3,2.6-5.6,3.5
				c-0.8,0.3-1.6,0.4-2.4,0.4c-3.2,0-4.1-1.9-4.4-2.7c-0.5-1.5-0.3-3.1,0.6-4.3c0.8-1.1,2.2-1.7,3.7-1.5c0.9,0.1,1,0.3,1.2,1
				c0.1,0.1,0.1,0.3,0.2,0.5c0.4,0.8,0.9,1,1.2,1c0.4,0,0.7-0.2,1.1-0.6c0.5-0.6,0.9-1.6,0.7-2.3c-0.3-1.6-2.2-2.4-3.8-2.5
				c-1.9-0.1-3.7,0.6-5,1.8c-0.6,0.6-1.2,1.3-1.8,1.9c-0.2,0.3-0.5,0.7-0.7,1l-0.1,0.1c-0.2,0.4-0.4,0.7-0.7,1
				c-0.4,0.4-0.8,0.8-1.2,1.2c-0.9,0.8-1.9,1.5-2.9,2.1c-1.5,0.9-2,1.3-3.6,2c-1,0.4-1.8,0.7-2.9,0.8c-1.2,0.1-2-0.1-3-0.9
				c-3.1-2.6-0.9-7.9,2.6-10.3c1.6-1.2,3.6-1.4,4.9-1.8c0.9-0.3,1.6-0.7,1.7-1.6c0.1-1-1.8-1.3-3.4-2.7c-0.4-0.4-1-1.2-1.1-1.8
				c0-0.4,0-0.8,0.1-1.2c0.5-3.1,3.6-4,6.8-3.1c0.3,0.1,0.7,0.2,1.2,0.3c0.6,0.1,1.2,0.2,1.6-0.1c1.2-1,0.1-2-0.9-2.5
				c-3.7-2.1-9.5-1.1-11.9,2.4c-0.5,0.7-0.8,1.5-1,2.4s0,2,0.3,2.9c0.4,1,1.4,2.5,0.8,3c0,0-0.1,0-0.1,0.1c-1.1,0.9-2.6,1.6-3.7,2.7
				c-1.1,1.1-1.5,1.7-2.3,3.1c-1.6,2.7-2.3,7-0.3,9.8c1.5,2.1,4.6,3.1,7.2,3c2.9-0.2,5.1-2,7.4-3.5c0.7-0.5,1.9-1.5,2.8-1.5
				c0.1,0,0.1,0,0.2,0c0,0,0,0,0.1,0c0.7,0.1,1.3,0.8,1.9,1.6c0.4,0.5,0.8,0.9,1.2,1.3c1.1,0.7,2.3,1.1,3.6,1.1
				c0.8,0,1.6-0.2,2.4-0.5c0.5-0.2,1.1-0.5,1.8-0.8c1.4-0.7,2.9-1.4,4.2-1.6c0.1,0,0.2,0,0.2,0c0,0.1,0,0.1,0,0.2
				c-0.1,0.3-0.2,0.8,0.2,1.3c0.3,0.3,0.7,0.5,1.1,0.5c0.7,0,1.4-0.4,1.8-1.1c0.6-0.8,1-1.8,1.4-2.8s0.6-1.8,0.7-2.6
				c0.3-1.1,0.5-2.1,1.2-3.4c0.4-0.8,2.2-2.1,3.6-2.1c0.5,0,0.9,0.2,1.2,0.5c0.5,0.6,0.3,1.3,0.1,2.1c0,0.2-0.1,0.4-0.1,0.5
				c-0.2,1-0.3,2.1-0.4,3.1V71c-0.1,0.9,0.3,2,0.5,2.7c0.6,1.5,2,2.3,3.8,2.3c1,0,2.1-0.3,3-0.8l0.2-0.1c0.9-0.5,1.9-1.1,2.9-1.1
				c0.4,0,0.8,0.1,1.3,0.3c0.4,0.2,0.6,0.4,0.8,0.6s0.5,0.4,0.8,0.7c0.9,0.5,1.8,0.9,2.8,1c2.6,0.4,4.7-0.3,7-2.2
				c0.1-0.1,0.2-0.2,0.3-0.3c0.5-0.4,1.1-0.8,1.5-1.4c0.2-0.2,0.4-0.5,0.5-0.8s0.3-0.5,0.5-0.7c0.4-0.5,1.2-0.7,2-0.9
				c0.4-0.1,0.7-0.2,1-0.3c0.5-0.2,1.1-0.4,1.7-0.5c1.1-0.3,2.3-0.6,3.3-1.4C212.3,67.7,213.7,65.9,213.6,64.4z M199.9,71.2
				c-0.5,0.7-1.7,1.6-2.8,1.7c-0.1,0-0.3,0-0.4,0c-1.6,0-3.2-0.8-4.1-2.2c-0.6-0.9-0.8-2-0.6-2.9c0.2-0.8,0.7-1.4,1.5-1.8l0.2-0.1
				c0.7-0.3,1.5-0.7,2.3-0.7c0.3,0,0.5,0,0.7,0.1c0.8,0.4,1,1,1.2,1.8v0.1c0.2,0.8,0.5,1.7,1.4,2.3l0.1,0.1c0.4,0.3,0.8,0.5,0.8,0.8
				C200.2,70.7,200.1,70.9,199.9,71.2z M202,66.8c-0.1,0.2-0.2,0.3-0.3,0.3l0,0c-0.5,0-1.3-0.8-1.3-1.3c0-0.1,0-0.1,0-0.1
				s0.1-0.1,0.4-0.1l0,0c0.3,0,0.8,0.3,1.1,0.7C201.9,66.4,202,66.6,202,66.8z"/>
		</g>
		<g>
			<g>
				<g>
					<polygon class="st2" points="241.2,67.3 239.7,67.3 236.8,70.4 236.8,63.7 235.6,63.7 235.6,74.6 236.8,74.6 236.8,72 
						237.7,71.1 240.3,74.6 241.9,74.6 238.5,70.2 					"/>
				</g>
				<g>
					<path class="st2" d="M242.7,67.3v7.3h1.2v-3.4c0-0.7,0-1.3,0.3-1.8c0.4-0.6,1-0.9,1.7-0.9c0.2,0,0.4,0,0.5,0v-1.3
						c-0.5,0-1.8,0-2.5,1.4v-1.3C243.9,67.3,242.7,67.3,242.7,67.3z"/>
				</g>
				<path class="st2" d="M251.9,70.2V70c0-0.8,0-2-1.6-2s-1.6,1.1-1.6,1.5l-1.3-0.1c0-0.3,0.1-0.7,0.3-1.1c0.4-0.8,1.3-1.3,2.5-1.3
					c0.7,0,1.6,0.2,2.1,0.6c0.8,0.7,0.8,1.5,0.8,2.5v2.4c0,0.7,0,1.1,0.5,1.1c0.2,0,0.3,0,0.4-0.1v1.1c-0.2,0-0.4,0.1-0.8,0.1
					c-0.6,0-1.1-0.2-1.3-1.1c-0.4,0.4-1.1,1.2-2.5,1.2s-2.5-0.9-2.5-2.1c0-0.4,0.1-0.8,0.3-1.1c0.4-0.6,1.2-1.1,3.4-1.3L251.9,70.2z
					 M250,71.4c-1.4,0.3-1.6,0.8-1.6,1.3c0,0.6,0.5,1.1,1.4,1.1s1.6-0.3,1.9-1.1c0.2-0.4,0.2-0.6,0.2-1.6
					C251.4,71.1,250.7,71.2,250,71.4z"/>
				<g>
					<polygon class="st2" points="257.6,72.9 255.7,67.3 254.4,67.3 257.1,74.6 258.2,74.6 260.8,67.3 259.6,67.3 					"/>
				</g>
				<path class="st2" d="M268.5,72.4c-0.2,0.5-0.8,2.5-3.3,2.5c-2.2,0-3.6-1.5-3.6-3.9c0-2.8,2-3.8,3.5-3.8c1.3,0,2.8,0.7,3.2,2.6
					c0.1,0.6,0.1,1.2,0.1,1.5h-5.5c0,1.2,0.6,2.7,2.4,2.7c1.1,0,1.7-0.7,1.9-1.7L268.5,72.4z M267.1,70.3c-0.1-1.9-1.5-2.2-2.1-2.2
					c-1.1,0-1.9,0.8-2.1,2.2H267.1z"/>
				<g>
					<path class="st2" d="M271.8,65h-1.3v2.3h-1.2v1h1.2V73c0,1,0,1.7,1.4,1.7c0.5,0,1-0.1,1.2-0.1v-1c-0.2,0.1-0.6,0.2-0.8,0.2
						c-0.5,0-0.5-0.4-0.5-1.2v-4.2h1.3v-1h-1.3L271.8,65L271.8,65z"/>
				</g>
			</g>
			<rect x="224.5" y="63.4" class="st2" width="0.2" height="11.7"/>
		</g>
	</g>
	<g id="Chilewich" class="st1">
		<path class="st2" d="M263.8,71.1c0.2,0,0.4,0.1,0.7,0.2c0.2,0.1,0.4,0.3,0.5,0.5s0.2,0.4,0.2,0.7c0,0.2-0.1,0.4-0.2,0.7
			c-0.1,0.2-0.3,0.4-0.5,0.5s-0.4,0.2-0.7,0.2c-0.2,0-0.5-0.1-0.7-0.2s-0.4-0.3-0.5-0.5s-0.2-0.4-0.2-0.7c0-0.2,0.1-0.5,0.2-0.7
			s0.3-0.4,0.5-0.5S263.6,71.1,263.8,71.1 M263.8,71.4c-0.2,0-0.4,0-0.5,0.1c-0.2,0.1-0.3,0.2-0.4,0.4c-0.1,0.2-0.1,0.3-0.1,0.5
			s0,0.4,0.1,0.5c0.1,0.2,0.2,0.3,0.4,0.4c0.2,0.1,0.3,0.1,0.5,0.1s0.4,0,0.5-0.1c0.2-0.1,0.3-0.2,0.4-0.4c0.1-0.2,0.1-0.3,0.1-0.5
			s0-0.4-0.1-0.5c-0.1-0.2-0.2-0.3-0.4-0.4S264,71.4,263.8,71.4z M263.2,73.2v-1.4h0.3c0.3,0,0.4,0,0.4,0c0.1,0,0.2,0,0.2,0.1
			l0.1,0.1c0,0.1,0.1,0.1,0.1,0.2s0,0.2-0.1,0.3c-0.1,0.1-0.2,0.1-0.3,0.1c0,0,0.1,0,0.1,0.1l0.1,0.1c0,0,0,0.1,0.1,0.2l0.2,0.3H264
			l-0.1-0.2c-0.1-0.2-0.1-0.2-0.2-0.3c-0.1,0-0.1-0.1-0.2-0.1h-0.1v0.6L263.2,73.2L263.2,73.2z M263.5,72.4h0.1c0.2,0,0.3,0,0.3,0
			s0.1,0,0.1-0.1v-0.1v-0.1l-0.1-0.1c0,0-0.1,0-0.3,0h-0.1V72.4z"/>
		<path class="st2" d="M147.3,65.6c-1.2-1.3-2.1-1.8-3.4-1.8c-2.2,0-3.9,1.8-3.9,4c0,2.3,1.7,4,3.8,4c1.4,0,2.3-0.5,3.5-1.9v2.4
			c-1.3,0.8-2.2,1.1-3.5,1.1c-3.3,0-5.8-2.4-5.8-5.7c0-3.3,2.5-5.7,5.8-5.7c1.3,0,2.2,0.3,3.4,1L147.3,65.6"/>
		<g>
			<path class="st2" d="M156.1,54.2v9.5c0.9-1.1,1.8-1.5,3.1-1.5s2.5,0.6,3.1,1.5c0.5,0.7,0.6,1.5,0.6,2.9v6.7h-1.8v-6.6
				c0-2-0.7-2.8-2.3-2.8c-1.9,0-2.7,1.2-2.7,4v5.4h-1.9V54.2H156.1"/>
			<rect x="170.4" y="62.4" class="st2" width="1.9" height="10.9"/>
			<rect x="179.8" y="54.2" class="st2" width="1.9" height="19.1"/>
			<path class="st2" d="M190.5,68.3c0.1,2.2,1.4,3.7,3.4,3.7c1.4,0,2.3-0.6,3.4-2.3l1.6,0.9c-0.5,0.9-0.8,1.3-1.3,1.7
				c-1,0.9-2.3,1.3-3.7,1.3c-3.1,0-5.4-2.3-5.4-5.7c0-3.4,2.2-5.7,5.3-5.7s5.2,2.3,5.2,5.7v0.4H190.5 M193.8,63.9
				c-1.6,0-2.9,1.2-3.2,2.8h6.4C196.6,65,195.4,63.9,193.8,63.9z"/>
			<polyline class="st2" points="209.5,69.8 212.9,61.6 216.3,69.8 219.6,62.4 221.7,62.4 216.2,74 212.9,66 209.5,74 204.2,62.4 
				206.3,62.4 209.5,69.8 			"/>
			<rect x="227.6" y="62.4" class="st2" width="1.9" height="10.9"/>
			<path class="st2" d="M245.4,65.6c-1.2-1.3-2.1-1.8-3.4-1.8c-2.2,0-3.9,1.8-3.9,4c0,2.3,1.7,4,3.8,4c1.4,0,2.3-0.5,3.5-1.9v2.4
				c-1.3,0.8-2.2,1.1-3.5,1.1c-3.3,0-5.8-2.4-5.8-5.7c0-3.3,2.5-5.7,5.8-5.7c1.3,0,2.2,0.3,3.4,1L245.4,65.6"/>
			<path class="st2" d="M254.2,54.2v9.5c0.9-1.1,1.8-1.5,3.1-1.5s2.5,0.6,3.1,1.5c0.5,0.7,0.6,1.5,0.6,2.9v6.7h-1.9v-6.6
				c0-2-0.7-2.8-2.3-2.8c-1.9,0-2.7,1.2-2.7,4v5.4h-1.9V54.2H254.2"/>
		</g>
	</g>
	<g id="DwellStudio_2_" class="st1">
		<g id="DwellStudio">
			<g>
				<path class="st2" d="M252.9,61.3c0.9,0,2.3-1.6,2.3-2.5c0-0.7-0.8-1.1-1.3-1.1c-0.4,0-0.5,0.3-0.5,0.4c0,0.5-0.2,0.9-0.4,1.2
					c-0.4,0.7-1.1,1.1-1.1,1.3C251.9,60.8,252.5,61.3,252.9,61.3 M259.1,72.3c-0.5,0-0.6-0.7-0.6-1.1c0-0.8,0.4-1.8,0.8-2.7
					c0,0.2,0.1,0.4,0.3,0.7c0.2,0.2,0.9,0.5,1.7,0.5C261.3,70.9,260.3,72.3,259.1,72.3 M243.6,64.4c0.3-2.2,1-3.8,1.3-4.3
					C245,60,245,60,245,60s0.1,0.1,0.1,0.3s-0.3,2.8-1.6,5.6C243.4,65.4,243.5,64.8,243.6,64.4 M212.5,75.2c-0.5,1.3-2,3.1-4.6,3.1
					c-2.8,0-4.8-1.3-4.7-1.9c0.2-1.2,5.3-3.1,8.8-4.2c0.5,0.9,0.7,1.5,0.7,2C212.7,74.3,212.7,74.7,212.5,75.2 M202.4,63
					c-0.4-0.2-0.7-0.4-1.1-0.6c-2-1.2-4-3.6-4-5.5c0-0.1,0-0.3,0.1-0.4c0.8-2.3,9.3-4.8,11.2-4.7c1.5,0,1.6,0.4,1.6,0.6
					C210.1,52.5,209.6,55.9,202.4,63 M139.5,78.1c-0.7,0-0.9-0.2-0.9-0.4c0-0.2,0-0.4,0.3-0.8c0.3-0.5,1-1.3,2.3-2.1
					c2.5-1.6,4.6-2.6,6.7-3.6C145.4,75.4,141.7,78.1,139.5,78.1 M133.6,71.3c0,0.4-0.3,6.1-0.7,6.1c-0.5,0-0.8-5.8-0.8-5.9
					c0-2.2,0.4-4.4,1.2-6.4C133.4,67.1,133.6,69.4,133.6,71.3 M171.3,67.9C171.3,67.9,171.4,67.9,171.3,67.9
					c0.1,0.5-0.5,2.2-2.1,3.5C169.8,68.8,170.9,67.9,171.3,67.9 M176.6,66c0.4-5,1.7-7.8,1.8-7.8s-0.1,3.7-1.9,8.8
					C176.6,66.7,176.6,66.2,176.6,66 M270.6,64.7c-0.2,0.1-5.2,2.4-8,3.2c-0.3-0.6-0.7-1-1.6-1c-0.7,0-1.1,0.2-1.3,0.5
					c0.1-0.5,0.2-1,0.2-1.6c0-0.2-0.3-0.8-0.9-0.8c-1,0-2.3,1.9-2.7,2.5c-0.5,0.7-1,1.6-1.5,2.3c-0.9,1.2-2,2-2.3,2
					c-0.2,0-0.6-0.3-0.6-1.5s0.3-2.4,0.3-2.6s0.2-0.5,0.2-0.5c0.5-1,0.9-1.9,0.9-2.4c0-0.3-0.3-0.8-0.9-0.8c-0.3,0-0.4,0.1-0.6,0.2
					c0,0-0.9,1.1-1.4,3.3c-0.1,0.3-0.4,0.8-0.8,1.3c-1.1,1.6-2.8,3.7-4,3.7c0,0-1.7,0-2.3-3.3c0-0.1,0-0.2,0-0.3
					c0.3-0.5,0.7-1.1,1-1.6c1.4-2.5,2.2-7.3,2.2-8.5c0,0,0.1-1.1-0.1-1.3c-0.2-0.2-0.9-0.4-1.1-0.4c-0.2,0-0.6,0.1-1,0.4
					c-0.8,0.8-2.3,3.4-2.7,8.6c-0.1,0.9-0.1,1.7,0,2.5c-0.9,1.3-2,2.6-3.5,3.7c-0.1,0.1-0.3,0.2-0.4,0.2c0,0-0.2,0-0.2-0.4
					c0-0.2,0.1-1.1,0.4-2c0.4-1.4,1.1-2.7,1.8-3.2c0.3-0.2,0.5,0,0.5-0.4c0-0.3-0.2-1-0.7-1c-0.4,0-2.4,0.6-3.3,4.5
					c-0.6,1.3-1.4,2.5-1.8,2.5c-0.1,0-0.8-0.6-1.5-4.2c-0.1-0.7-0.3-1.2-0.5-1.4c-0.2-0.2-0.7-0.3-1-0.3c-0.1,0-0.3,0-0.3,0.1
					c-0.4,0.2-1,1.3-1.7,2.7c-0.7,1.5-1.4,3-1.5,3s-1-3.1-0.9-5.7c0-0.3,0.1-0.6,0.1-0.6c0-0.2-0.1-0.3-0.2-0.3
					c-0.1,0-0.2-0.1-0.3-0.1c-0.2,0-0.4,0.1-0.9,0.4c-0.6,0.3-1.3,0.6-1.3,0.6c-1.4,0.6-3.2,1.2-5.2,1.9c0-3.3,0.1-7.7,0.2-8.8
					c0.2-2.2,0.6-4.4,0.6-4.7s0-0.4-0.1-0.5s-0.4-0.2-0.7-0.2c-0.2,0-0.5,0.1-0.5,0.1c-0.4,0.2-0.9,3.7-0.9,8.2c0,1.9,0,4.2,0,6.4
					c-1.7,0.5-3.5,1.1-5.3,1.6c-0.3-0.4-0.7-0.8-1-1.2c-2.7-2.7-5.5-4.2-8-5.5c4.2-4.2,7.8-8.6,8.1-11.2c0-1.8-3.1-1.8-3.3-1.8
					c-2.5,0-7,1.3-10.1,3c-1.6,0.9-2.8,1.9-2.8,3c0.1,3,2.6,5.3,5.7,7.2l0.1,0.1c-2.7,2.7-5.7,5.3-8.2,7.3c-2.9,2.3-4.9,4-6.2,4
					c-0.6,0-3.3,0.4-1.3-7.3c1.2-2.3,2.3-5.2,2.6-7.9c0-0.5-0.2-0.9-0.4-1.1c-0.1-0.1-0.4-0.3-0.7-0.3s-1.5,0.5-2.2,4.2
					c-0.3,1.5-0.8,3.8-1.1,5.5c-1.2,2.1-4,6-5.8,6c-1.3,0-1.7-1.2-1.7-2.9c1.5-2.8,2.8-6.9,3.7-12.7c0.1-0.9,0.1-1.4,0.1-1.4
					c0-0.8-0.5-1.4-1.1-1.4c-0.4,0-0.9,0.2-1,0.4c-1.3,1.1-3,4.7-3.2,14.9c-0.1,0.4-0.3,0.7-0.5,1.1c-1.3,2.1-3.2,3.4-3.3,3.5
					c-0.6,0.4-0.9,0.4-1.1,0.4c-0.7,0-1.3-1-1.2-2.1c0-0.1,0-0.2,0-0.2c2-1.1,4.4-3.9,4.2-6.3c0-0.6-0.6-0.9-1.3-0.9
					c-0.8,0-3.7,0.9-4.4,6l0,0c-1.1,0.1-1.7-1.2-1.9-2.3c0-0.2,0-0.5,0-0.7c0-0.7,0.1-1.3,0.1-1.4c0.1-0.3,0.2-0.5,0.2-0.9
					c0-0.6-0.4-0.7-0.7-0.7c-0.4,0-0.8,0.2-0.9,0.7c0,0.1-0.1,0.4-0.2,0.7c0,0.2-0.5,3-0.6,3.8c-0.3,1.9-1.3,4.4-1.9,5
					c-1.5-1.4-1.3-8.3-1.3-8.3s0-0.1,0-0.2c0-0.3-0.1-0.6-0.3-0.7c-0.1-0.1-0.3-0.1-0.5-0.1c-0.5,0-1,0.4-1,1c0,0.1,0,0.3,0,0.4
					c-0.2,1.3-2.3,6.4-3.1,6.4c-0.2,0-0.6-0.7-0.5-2.8c0.1-1,0.2-1.5,0.4-2.2c0.2-0.8,1-2.8,1.1-3.1c0.2-0.4,0.5-0.7,0.5-1
					s-0.5-0.6-0.8-0.6c-0.4,0-0.6,0.3-1.1,0.6c-0.4,0.2-2.1,1.1-3.8,2.1c0.8-2.1,1.3-4.6,1.3-6.1c0-6.6-5.7-7-8.2-7
					c-4.6,0-7.9,2.5-10,5.7c-0.4-4.8-0.4-5.3-0.4-5.5c0-0.3-0.1-0.6-0.2-0.8c-0.1-0.2-0.3-0.3-0.5-0.3h-0.2
					c-0.2,0.1-0.4,0.4-0.4,0.6s0.2,4.3,0.3,5.2c0,0.3,0.1,1.3,0.2,2.6c-0.7,1.4-1.3,2.9-1.6,4.2c-0.5,1.9-0.5,3.6-0.5,4.5
					c0,0.5,0.2,8.7,2,8.7c1.5,0,1.9-3.3,1.9-8.4c0-1.1-0.2-5.3-0.4-8.6c1.4-2.6,3.4-4.7,5.7-5.8c1.3-0.6,2.9-0.9,4.4-0.9
					c1,0,1.8,0.2,2.5,0.3c4.3,0.9,4,5.4,4,5.4c-0.2,2.7-0.9,5.1-1.9,7.3c0,0-6.9,3.3-9.4,5.2c-1.7,1.2-2.6,2.6-2.5,3.8
					c0.1,1.3,2.6,1.2,2.6,1.2c3.7,0,7.4-3.8,9.9-8.1c0.2-0.4,0.4-0.7,0.6-1.1c0.8-0.4,1.6-0.8,2.5-1.4c0.7-0.4,1.3-0.7,1.8-1.1
					c-0.5,1.3-1.1,3.2-1.1,5.7s1.2,3.2,1.9,3.2c0.5,0,1.5-0.1,3-3c0.2-0.3,0.3-0.5,0.4-0.5c0.1,0,0.2,5.1,2.6,5.1
					c2.5,0,3.5-5.5,3.5-5.5c0.5,0.8,1.3,1.4,2.4,1.4c0,0.1,0,0.2,0,0.4c0,1.8,1.4,3.1,2.7,3.1c0.7,0,2.9-0.7,5.2-4
					c0.6,1.8,1.8,2.4,2.6,2.4c0.7,0,2.6-0.2,5.7-4.3c-0.1,0.4-0.1,0.9-0.1,1.3c0,0,0,4,3.3,4c1,0,2-0.4,3.8-1.6
					c2.3-1.6,7.6-5.9,12.3-10.5c1.9,1.1,4,2.2,5.5,3.3c1.3,1,2.3,2,3,2.9c-5.1,1.7-9.4,3.4-9.4,5.2c0,1.3,2.1,3.3,5.7,3.3
					c2.9,0,4.5-1.1,5.5-2.1c0.7-0.8,1.3-1.9,1.3-2.7c0-1-0.3-2-0.8-2.9c1.1-0.3,1.7-0.5,1.7-0.5c1-0.3,1.9-0.5,2.7-0.8
					c0,1,0,1.9,0,2.8c0,2.7,0.1,5,0.4,5.7c0.1,0.2,0.4,0.5,0.8,0.5c0.3,0,0.6-0.1,0.7-0.3c0.1-0.1,0.1-0.3,0.1-0.4s0-0.2,0-0.2
					c-0.3-0.6-0.3-2.3-0.3-4.3c0-1.4-0.1-3.1-0.1-4.5c2.9-0.9,4.8-1.6,6-2.2c0.2,1.9,0.8,5.8,1.9,6.9c0.1,0.1,0.4,0.1,0.6,0.1
					c0.3,0,0.7-0.1,0.9-0.3c1.1-1.7,2.4-5.4,2.7-5.4s0.5,3.6,2,4.7c0.3,0.2,0.6,0.3,0.9,0.3c0.2,0,1,0,1.8-0.9c0.2,0.4,0.6,1,1.6,1
					c0.9,0,2.7-1.3,4.4-3.4c0.6,2,1.9,3.2,3.6,3.2c0.4,0,1.1-0.1,1.6-0.4c0.9-0.5,1.9-1.6,2.9-2.9c0.1,0.8,0.5,2.7,2,2.7
					c2.6,0,4.9-4.4,5-4.4s-0.4,1.2-0.4,2.4c0,1.2,0.4,2.6,2.3,2.6c2.5,0,3.6-2.9,3.7-3.8c0,0,0-0.3,0-0.7c2.7-0.8,6.9-2.5,7.5-3.1
					c0.2-0.2,0.7-0.7,0.7-1.1C271.1,64.8,270.9,64.6,270.6,64.7"/>
			</g>
		</g>
		<path class="st2" d="M265.8,70.6c0.2,0,0.5,0.1,0.7,0.2s0.4,0.3,0.5,0.5s0.2,0.5,0.2,0.7c0,0.3-0.1,0.5-0.2,0.7s-0.3,0.4-0.5,0.5
			s-0.5,0.2-0.7,0.2c-0.3,0-0.5-0.1-0.7-0.2s-0.4-0.3-0.5-0.5s-0.2-0.5-0.2-0.7c0-0.3,0.1-0.5,0.2-0.7s0.3-0.4,0.5-0.5
			S265.5,70.6,265.8,70.6 M265.8,70.9c-0.2,0-0.4,0-0.6,0.1s-0.3,0.2-0.4,0.4c-0.1,0.2-0.2,0.4-0.2,0.6s0.1,0.4,0.2,0.6
			s0.2,0.3,0.4,0.4c0.2,0.1,0.4,0.2,0.6,0.2s0.4-0.1,0.6-0.2s0.3-0.2,0.4-0.4c0.1-0.2,0.2-0.4,0.2-0.6s-0.1-0.4-0.2-0.6
			s-0.2-0.3-0.4-0.4C266.2,71,266,70.9,265.8,70.9z M265.1,72.8v-1.5h0.3c0.3,0,0.5,0,0.5,0c0.1,0,0.2,0,0.2,0.1
			c0.1,0,0.1,0.1,0.1,0.1c0,0.1,0.1,0.1,0.1,0.2s0,0.2-0.1,0.3c-0.1,0.1-0.2,0.1-0.3,0.1c0,0,0.1,0,0.1,0.1l0.1,0.1
			c0,0,0,0.1,0.1,0.2l0.2,0.3h-0.3l-0.1-0.2c-0.1-0.2-0.2-0.3-0.2-0.3c-0.1,0-0.1-0.1-0.2-0.1h-0.1v0.6
			C265.5,72.8,265.1,72.8,265.1,72.8z M265.5,72h0.1c0.2,0,0.3,0,0.3,0s0.1,0,0.1-0.1v-0.1v-0.1l-0.1-0.1c0,0-0.2,0-0.3,0h-0.1V72z"
			/>
	</g>
	<g id="Sunbrella" class="st1">
		<polygon class="st2" points="140.4,74 139.1,82.7 137.7,74 136,74 137.7,84.6 140.3,84.6 142,74 		"/>
		<polygon class="st2" points="144.4,74 144.4,84.6 149.2,84.6 149.2,83.1 146.2,83.1 146.2,80 148.6,80 148.6,78.5 146.2,78.5 
			146.2,75.5 149.2,75.5 149.2,74 		"/>
		<polygon class="st2" points="155.8,74 155.8,80.4 154,74 151.9,74 151.9,84.6 153.4,84.6 153.4,76.9 155.6,84.6 157.4,84.6 
			157.4,74 		"/>
		<polygon class="st2" points="159.7,74 159.7,75.5 161.6,75.5 161.6,84.6 163.3,84.6 163.3,75.5 165.2,75.5 165.2,74 		"/>
		<path class="st2" d="M169.4,75.9l0.8,5.4h-1.7L169.4,75.9z M168.2,74l-1.8,10.6h1.7l0.3-1.9h2.1l0.3,1.9h1.8L170.8,74H168.2z"/>
		<polygon class="st2" points="179,74 179,80.4 177.2,74 175,74 175,84.6 176.5,84.6 176.5,76.9 178.7,84.6 180.5,84.6 180.5,74 		
			"/>
		<path class="st2" d="M185.9,75.9l0.8,5.4H185L185.9,75.9z M184.7,74l-1.8,10.6h1.6l0.3-1.9h2.1l0.3,1.9h1.8L187.2,74H184.7z"/>
		<g>
			<path class="st2" d="M200.6,80.7v1.4c0,0.9-0.2,1.5-0.7,2c-0.4,0.5-1.1,0.7-2,0.7s-1.5-0.2-1.9-0.7s-0.7-1.1-0.7-2v-5.5
				c0-0.9,0.2-1.5,0.7-2c0.4-0.5,1.1-0.7,1.9-0.7c0.9,0,1.5,0.2,2,0.7c0.4,0.5,0.7,1.1,0.7,2v1h-1.7v-1.1c0-0.4-0.1-0.7-0.2-0.8
				c-0.2-0.2-0.4-0.2-0.7-0.2s-0.5,0.1-0.7,0.2c-0.2,0.2-0.2,0.4-0.2,0.8v5.7c0,0.4,0.1,0.7,0.2,0.8c0.2,0.2,0.4,0.2,0.7,0.2
				s0.5-0.1,0.7-0.2c0.2-0.2,0.2-0.4,0.2-0.8v-1.5H200.6z"/>
			<path class="st2" d="M203.1,76.6c0-0.9,0.2-1.5,0.7-2s1.1-0.7,2-0.7s1.5,0.2,2,0.7s0.7,1.1,0.7,2v5.5c0,0.9-0.2,1.5-0.7,2
				s-1.1,0.7-2,0.7s-1.5-0.2-2-0.7s-0.7-1.1-0.7-2V76.6z M204.8,82.2c0,0.4,0.1,0.7,0.2,0.8c0.2,0.2,0.4,0.2,0.7,0.2
				s0.5-0.1,0.7-0.2c0.2-0.2,0.2-0.4,0.2-0.8v-5.7c0-0.4-0.1-0.7-0.2-0.8c-0.2-0.2-0.4-0.2-0.7-0.2s-0.5,0.1-0.7,0.2
				c-0.2,0.2-0.2,0.4-0.2,0.8V82.2z"/>
		</g>
		<polygon class="st2" points="211.1,74 211.1,84.6 215.7,84.6 215.7,83.1 212.9,83.1 212.9,74 		"/>
		<polygon class="st2" points="218.1,74 218.1,84.6 222.7,84.6 222.7,83.1 219.9,83.1 219.9,74 		"/>
		<polygon class="st2" points="225.1,74 225.1,84.6 229.9,84.6 229.9,83.1 226.8,83.1 226.8,80 229.2,80 229.2,78.5 226.8,78.5 
			226.8,75.5 229.9,75.5 229.9,74 		"/>
		<g>
			<path class="st2" d="M237.6,80.7v1.4c0,0.9-0.2,1.5-0.7,2c-0.4,0.5-1.1,0.7-2,0.7s-1.5-0.2-2-0.7c-0.4-0.5-0.7-1.1-0.7-2v-5.5
				c0-0.9,0.2-1.5,0.7-2c0.4-0.5,1.1-0.7,2-0.7s1.5,0.2,2,0.7c0.4,0.5,0.7,1.1,0.7,2v1h-1.7v-1.1c0-0.4-0.1-0.7-0.2-0.8
				c-0.2-0.2-0.4-0.2-0.7-0.2s-0.5,0.1-0.7,0.2c-0.2,0.2-0.2,0.4-0.2,0.8v5.7c0,0.4,0.1,0.7,0.2,0.8c0.2,0.2,0.4,0.2,0.7,0.2
				s0.5-0.1,0.7-0.2c0.2-0.2,0.2-0.4,0.2-0.8v-1.5H237.6z"/>
		</g>
		<polygon class="st2" points="239.8,74 239.8,75.5 241.6,75.5 241.6,84.6 243.3,84.6 243.3,75.5 245.2,75.5 245.2,74 		"/>
		<rect x="247.5" y="74" class="st2" width="1.8" height="10.6"/>
		<g>
			<path class="st2" d="M252,76.6c0-0.9,0.2-1.5,0.7-2s1.1-0.7,2-0.7s1.5,0.2,2,0.7s0.7,1.1,0.7,2v5.5c0,0.9-0.2,1.5-0.7,2
				s-1.1,0.7-2,0.7s-1.5-0.2-2-0.7s-0.7-1.1-0.7-2L252,76.6L252,76.6z M253.8,82.2c0,0.4,0.1,0.7,0.2,0.8c0.2,0.2,0.4,0.2,0.7,0.2
				s0.5-0.1,0.7-0.2c0.2-0.2,0.2-0.4,0.2-0.8v-5.7c0-0.4-0.1-0.7-0.2-0.8c-0.2-0.2-0.4-0.2-0.7-0.2s-0.5,0.1-0.7,0.2
				c-0.2,0.2-0.2,0.4-0.2,0.8V82.2z"/>
		</g>
		<polygon class="st2" points="264,74 264,80.4 262.2,74 260,74 260,84.6 261.6,84.6 261.6,76.9 263.8,84.6 265.6,84.6 265.6,74 		
			"/>
		<g>
			<path class="st2" d="M172.5,41.4c-4.9,0.4-9.2,2.9-11.9,6.6c2.1,0.1,4.2,0.6,6,1.5C167.6,46.2,169.7,43.4,172.5,41.4"/>
			<path class="st2" d="M174.8,41.4c4.9,0.4,9.2,2.9,11.9,6.6c-2.1,0.1-4.2,0.6-6,1.5C179.7,46.2,177.6,43.4,174.8,41.4"/>
			<path class="st2" d="M173.6,48.3c2.3,0,4.4,0.4,6.4,1.2c-1.2-3.4-3.4-6.2-6.4-8.1c-3,1.8-5.3,4.7-6.4,8.1
				C169.2,48.7,171.4,48.3,173.6,48.3"/>
			<path class="st2" d="M162.3,59.1c0.6,0.8,1.4,1.3,2.5,1.3c1,0,2.1-0.4,2.1-1.5s-1-1.3-2.1-1.6c-1.9-0.4-3.4-0.8-3.4-2.9
				c0-1.9,1.8-2.9,3.6-2.9c1.4,0,2.6,0.5,3.3,1.8l-1.4,0.9c-0.4-0.7-1.1-1.2-2.1-1.2c-0.9,0-1.9,0.4-1.9,1.4c0,0.8,1.2,1.2,2.5,1.4
				c1.7,0.3,3.2,1,3.2,3c0,2.3-2,3.1-3.9,3.1c-1.6,0-2.8-0.4-3.8-1.8L162.3,59.1z"/>
			<path class="st2" d="M182.4,51.5c-1.6,0-2.8,0.9-3.3,1.9l0,0v-1.6h-1.6v4.8c0,2.3-0.9,3.8-3,3.8c-1.5,0-2.2-1-2.2-2.7v-6h-1.6
				v6.1c0,2.4,1.1,4.1,3.7,4.1c1.6,0,2.8-0.9,3.3-1.9l0,0v1.6h1.6v-4.8c0-2.3,0.9-3.8,3-3.8c1.5,0,2.2,1,2.2,2.7v6h1.6v-6.1
				C186.1,53.2,185,51.5,182.4,51.5"/>
			<path class="st2" d="M193.9,60.4c2.1,0,3.5-1.6,3.5-3.7S196,53,193.9,53s-3.5,1.6-3.5,3.7C190.5,58.8,191.8,60.4,193.9,60.4
				 M188.8,46.3h1.6v6.9l0,0c0.9-1.1,2.1-1.7,3.5-1.7c3.1,0,5.1,2.2,5.1,5.2s-2.1,5.2-4.9,5.2c-1.8,0-3.1-0.9-3.8-2l0,0v1.8h-1.6
				L188.8,46.3L188.8,46.3z"/>
			<path class="st2" d="M201.5,54.1c0-0.9-0.1-1.7-0.1-2.4h1.5c0,0.5,0,1.1,0,1.6l0,0c0.4-1,1.6-1.9,3.2-1.9c0.2,0,0.4,0,0.7,0.1
				l-0.1,1.7c-0.3-0.1-0.6-0.1-0.9-0.1c-2,0-2.9,1.4-2.9,3.7v4.8h-1.6v-7.5C201.3,54.1,201.5,54.1,201.5,54.1z"/>
			<path class="st2" d="M215.5,55.8c-0.1-1.7-1.1-2.8-2.9-2.8s-3,1.1-3.2,2.8H215.5z M216.9,59.9c-1.1,1.5-2.5,2.1-4.3,2.1
				c-3.1,0-4.9-2.3-4.9-5.2c0-3.1,2.1-5.2,5-5.2c2.8,0,4.6,1.9,4.6,5.2v0.5h-7.9c0.1,1.7,1.4,3.2,3.2,3.2c1.4,0,2.3-0.5,3.1-1.5
				L216.9,59.9z"/>
		</g>
		<rect x="219.7" y="46.3" class="st2" width="1.6" height="15.4"/>
		<rect x="224.4" y="46.3" class="st2" width="1.6" height="15.4"/>
		<g>
			<path class="st2" d="M233.5,56.9c-2.1,0-3.4,0.6-3.4,1.9s0.9,1.7,2.1,1.7c1.9,0,2.8-1.4,2.9-3v-0.6
				C235.1,56.9,233.5,56.9,233.5,56.9z M228.8,53c1-1,2.5-1.5,3.9-1.5c2.9,0,4.1,1.4,4.1,4.2V60c0,0.6,0.1,1.2,0.1,1.7h-1.6
				c-0.1-0.4-0.1-1.1-0.1-1.5l0,0c-0.6,1-1.7,1.7-3.2,1.7c-2,0-3.6-1-3.6-3c0-3.3,3.8-3.5,6.1-3.5h0.6v-0.3c0-1.4-0.9-2.2-2.4-2.2
				c-1,0-2.1,0.4-2.9,1.1L228.8,53z"/>
			<path class="st2" d="M239.1,51.3h0.3c0.2,0,0.5,0,0.5-0.3s-0.2-0.3-0.4-0.3h-0.4L239.1,51.3L239.1,51.3z M238.8,50.4h0.7
				c0.4,0,0.6,0.2,0.6,0.5s-0.2,0.5-0.5,0.5l0.5,0.8h-0.3l-0.5-0.8h-0.2v0.8h-0.3V50.4z M239.4,52.7c0.7,0,1.3-0.6,1.3-1.4
				s-0.6-1.4-1.3-1.4s-1.3,0.6-1.3,1.4C238.2,52.2,238.7,52.7,239.4,52.7 M239.4,49.8c0.9,0,1.6,0.7,1.6,1.6s-0.7,1.6-1.6,1.6
				c-0.9,0-1.6-0.7-1.6-1.6C237.9,50.5,238.6,49.8,239.4,49.8"/>
		</g>
		<path class="st2" d="M266.8,73.8v0.4h0.8v2.3h0.4v-2.3h0.8v-0.4H266.8z M271.7,73.8l-0.9,1.4l-0.9-1.4h-0.4v2.6h0.4v-2l0.9,1.4
			h0.1l0.9-1.4v2h0.4v-2.6H271.7z"/>
	</g>
	<g id="Ralph_Lauren" class="st1">
		<g>
			<path class="st2" d="M114.6,61.1h1.5c1.8,0,2.4,1.2,2.4,2.3c0,1.5-1,2.5-2.9,2.5h-1C114.6,65.9,114.6,61.1,114.6,61.1z
				 M115.9,71.5v-0.3h-1.3V66h0.1l4.2,5.5h2.6v-0.3h-0.8l-3.9-5.1c2.4-0.1,3.6-1.2,3.6-2.7c0-1.4-1-2.6-3.7-2.6h-4.8v0.3h1v10.1h-1
				v0.3C111.9,71.5,115.9,71.5,115.9,71.5z"/>
			<path class="st2" d="M131.5,62.3L131.5,62.3l1.6,4.6h-3.2L131.5,62.3z M129.9,71.5v-0.3h-1.6l1.4-4h3.5l1.3,4h-1.2v0.3h3.6v-0.3
				h-0.7l-3.6-10.6h-1.1l-3.8,10.6h-1v0.3H129.9z"/>
			<path class="st2" d="M146.2,71.2h2.4c1.1,0,1.4-0.2,2.4-4h0.4v4.3h-7.9v-0.3h1V61.1h-1v-0.3h4.4v0.3h-1.6L146.2,71.2L146.2,71.2z
				"/>
			<path class="st2" d="M161.5,61.1h1.7c1.7,0,2.4,1,2.4,2.5c0,1.9-0.8,2.4-2.6,2.4h-1.5L161.5,61.1L161.5,61.1z M163,71.5v-0.3
				h-1.5v-4.9h2c2.7,0,4-1.1,4-2.7s-1.4-2.8-4-2.8h-4.7v0.3h1v10.1h-1v0.3H163z"/>
			<polygon class="st2" points="176.8,66.1 176.8,71.2 177.9,71.2 177.9,71.5 174.1,71.5 174.1,71.2 175,71.2 175,61.1 174.1,61.1 
				174.1,60.7 177.9,60.7 177.9,61.1 176.8,61.1 176.8,65.8 181.2,65.8 181.2,61.1 180.1,61.1 180.1,60.7 183.9,60.7 183.9,61.1 
				182.9,61.1 182.9,71.2 183.9,71.2 183.9,71.5 180.1,71.5 180.1,71.2 181.2,71.2 181.2,66.1 			"/>
			<path class="st2" d="M203.8,71.2h2.4c1.1,0,1.4-0.2,2.4-4h0.4v4.3h-7.9v-0.3h1V61.1h-1v-0.3h4.4v0.3h-1.6L203.8,71.2L203.8,71.2z
				"/>
			<path class="st2" d="M219.7,62.3L219.7,62.3l1.6,4.6h-3.2L219.7,62.3z M218.1,71.5v-0.3h-1.6l1.4-4h3.5l1.3,4h-1.2v0.3h3.6v-0.3
				h-0.7l-3.6-10.6h-1.1l-3.8,10.6h-1v0.3H218.1z"/>
			<path class="st2" d="M235.4,60.7V61h-1.2v7.8c0,1.9,1.1,2.5,2.2,2.5c1.6,0,2.7-1,2.7-2.6V61h-1.5v-0.3h2.9V61h-1v7.7
				c0,1.8-1.3,2.9-3.2,2.9c-2.7,0-3.9-1.1-3.9-3.2v-7.5h-1v-0.3L235.4,60.7L235.4,60.7z"/>
			<path class="st2" d="M250.1,61.1h1.5c1.8,0,2.4,1.2,2.4,2.3c0,1.5-1,2.5-2.9,2.5h-1V61.1z M251.3,71.5v-0.3h-1.2V66h0.1l4.2,5.5
				h2.6v-0.3h-0.9l-3.9-5.1c2.4-0.1,3.6-1.2,3.6-2.7c0-1.4-1-2.6-3.7-2.6h-4.8v0.3h1v10.1h-1v0.3C247.3,71.5,251.3,71.5,251.3,71.5z
				"/>
			<path class="st2" d="M262.9,71.5v-0.3h1V61.1h-1v-0.3h8.3v3.5h-0.4c-0.9-2.9-1.1-3.1-2-3.1h-3.3v4.7h1.3c0.8,0,1.2-0.5,1.5-2.2
				h0.4v4.7h-0.4c-0.3-1.7-0.7-2.2-1.5-2.2h-1.3v5.1h2.9c1.2,0,1.5-0.4,2.5-3.7h0.4v4L262.9,71.5L262.9,71.5z"/>
			<polygon class="st2" points="280.1,61.4 280.1,61.4 280.1,71.2 281.5,71.2 281.5,71.5 278.5,71.5 278.5,71.2 279.6,71.2 
				279.6,61.1 278.5,61.1 278.5,60.7 281.7,60.7 286.5,68.5 286.6,68.5 286.6,61.1 285.2,61.1 285.2,60.7 288.1,60.7 288.1,61.1 
				287,61.1 287,71.5 286.5,71.5 			"/>
		</g>
	</g>
	<g id="Novogratz" class="st1">
		<g>
			<path class="st2" d="M184.9,40.3V44c0,1.3,0,2.6,0,3.6c0,0.1,0,0.3,0,0.4c-0.1-0.1-0.1-0.2-0.2-0.3c-0.7-1-1.7-2.4-2.3-3.1
				l-3.2-4.3h-3.9v15.4h4.3V52c0-1.7,0-3.1,0-4.1c0-0.1,0-0.1,0-0.2c0.1,0.2,0.3,0.4,0.4,0.6c0.7,0.9,1.5,2.1,2.2,3.1l3.1,4.2h3.9
				V40.3H184.9z"/>
			<path class="st2" d="M200.3,40c-4.5,0-8,3.4-8,8c0,4.5,3.4,8,8,8c4.5,0,8-3.5,8-8S204.8,40,200.3,40"/>
			<path class="st2" d="M200.5,65.3v3.6h3.6c-0.5,0.8-1.4,1.5-3.1,1.5c-2.3,0-3.7-1.5-3.7-3.8s1.4-3.7,3.5-3.7c1,0,2.2,0.5,2.7,1.2
				l0.2,0.2l4.3-1.1l-0.2-0.5c-1.4-2.6-4-4.1-7-4.1c-4.5,0-8,3.4-8,8c0,4.5,3.4,8,8,8c1.3,0,2.6-0.4,3.6-1c0,0.1,0,0.2,0,0.3v0.4
				h3.8v-9H200.5z"/>
			<path class="st2" d="M221.8,68.7c1.6-0.9,2.5-2.4,2.5-4.4c0-3.3-2.5-5.4-6.3-5.4h-5.9v15.4h4.3v-4.7h1.2l2.7,4.7h4.9L221.8,68.7z
				"/>
		</g>
		<polygon class="st2" points="180,77.6 173.9,93 178.5,93 179.3,90.7 184.5,90.7 185.4,93 190,93 183.9,77.6 		"/>
		<polygon class="st2" points="191.6,77.6 191.6,81.7 197.8,81.7 197.8,93 202.1,93 202.1,81.7 207.9,81.7 207.9,77.6 		"/>
		<g>
			<path class="st2" d="M224.6,81.5v-3.8h-12.9v4.1h5.7c0.3,0,0.7,0,1.2,0c-0.2,0.2-0.4,0.4-0.6,0.6l-6.6,6.9v3.8h13.1V89h-5.7
				c-0.3,0-0.8,0-1.3,0c0.2-0.2,0.4-0.5,0.7-0.7L224.6,81.5z"/>
			<path class="st2" d="M182.1,58.7c-4.5,0-8,3.4-8,8s3.4,8,8,8c4.5,0,8-3.5,8-8S186.5,58.7,182.1,58.7"/>
			<path class="st2" d="M217.8,48.6c-0.2,0.5-0.3,1-0.5,1.4c-0.1-0.4-0.3-0.9-0.5-1.4l-2.9-8.3h-4.7l5.9,15.4h4.3l5.9-15.4h-4.7
				L217.8,48.6z"/>
		</g>
	</g>
	<g id="Kate_Spade" class="st1">
		<path class="st2" d="M225.9,60.3h-0.2v11.9h0.2V60.3z M273.9,61.9h-1.3v2.4h-1.2v1h1.2v4.8c0,1,0,1.7,1.4,1.7c0.5,0,1-0.1,1.2-0.1
			v-1c-0.3,0.1-0.6,0.2-0.8,0.2c-0.5,0-0.5-0.4-0.5-1.3v-4.3h1.4v-1h-1.4L273.9,61.9L273.9,61.9z M264.9,67.3c0.1-1.5,1-2.3,2.1-2.3
			c0.6,0,2,0.3,2.1,2.3H264.9z M269.2,69.2c-0.2,1-0.9,1.7-2,1.7c-1.8,0-2.4-1.5-2.4-2.8h5.6c0-0.3,0-0.9-0.1-1.5
			c-0.4-1.9-1.9-2.6-3.3-2.6c-1.6,0-3.6,1.1-3.6,3.9c0,2.5,1.4,4,3.6,4c2.5,0,3.2-2,3.4-2.5L269.2,69.2z M259.5,70l-2-5.7h-1.3
			l2.7,7.4h1.1l2.7-7.4h-1.3L259.5,70z M253.6,68c0,1.1,0,1.3-0.2,1.7c-0.4,0.8-1.1,1.1-2,1.1s-1.4-0.5-1.4-1.1c0-0.5,0.2-1,1.6-1.3
			C252.4,68.2,253.1,68.1,253.6,68 M252.4,67.3c-2.2,0.2-3,0.7-3.4,1.3c-0.2,0.3-0.3,0.7-0.3,1.1c0,1.3,1.1,2.1,2.5,2.1
			s2.2-0.8,2.6-1.2c0.1,0.9,0.7,1.1,1.3,1.1c0.4,0,0.6-0.1,0.8-0.1v-1.1c-0.1,0-0.3,0.1-0.4,0.1c-0.5,0-0.5-0.4-0.5-1.1v-2.4
			c0-1,0-1.8-0.8-2.5c-0.6-0.5-1.5-0.6-2.2-0.6c-1.3,0-2.1,0.5-2.6,1.3c-0.2,0.4-0.3,0.9-0.3,1.1l1.3,0.1c0-0.4,0-1.6,1.6-1.6
			c1.7,0,1.7,1.3,1.7,2.1v0.2L252.4,67.3z M244.2,64.3v7.4h1.3v-3.4c0-0.7,0-1.3,0.3-1.9c0.4-0.6,1-0.9,1.7-0.9c0.2,0,0.4,0,0.5,0
			v-1.4c-0.5,0-1.8,0-2.6,1.5v-1.4h-1.2V64.3z M242.8,64.3h-1.5l-3,3.2v-6.9H237v11.1h1.3v-2.6l0.9-0.9l2.7,3.6h1.6l-3.4-4.5
			L242.8,64.3z M170.9,56.3c0,0-0.1,0.1-0.1,0.3v0.3h5v-0.3c0-0.2-0.1-0.3-0.1-0.3c-0.4-0.4-1.9-1.9-1.7-3c0-0.1,0-0.1,0.1-0.2V53
			c0,0,0.1,0.1,0.1,0.2l0.1,0.1c0.3,0.3,1.1,0.9,2.2,0.9c1.4,0,2.5-1.4,2.3-2.8c0,0,0.2-1.6-3.1-3.9c0,0-1.6-1.1-2.3-1.9
			c0,0,0-0.1-0.1-0.1l0,0c0,0-0.1,0-0.1,0.1c-0.7,0.8-2.4,1.9-2.4,1.9c-3.3,2.2-3.1,3.9-3.1,3.9c-0.1,1.4,0.9,2.8,2.3,2.8
			c1.1,0,1.9-0.6,2.2-0.9l0.1-0.1c0.1-0.1,0.1-0.1,0.1-0.2c0,0,0,0,0,0.1s0.1,0.1,0.1,0.2C172.8,54.4,171.3,55.9,170.9,56.3
			 M193,83.9l-0.9-1l1.1-1.3c0.2-0.3,0.3-0.4,0.7-0.4V81c-0.2,0-0.5,0-0.7,0c-0.3,0-0.5,0-0.8,0v0.2c0.2,0,0.5,0,0.5,0.3
			c0,0.4-1.3,1.7-1.6,2.1V82c0-0.6,0-0.7,0.7-0.7V81c-0.3,0-0.7,0-1,0s-0.6,0-0.9,0v0.2c0.2,0,0.5,0,0.6,0.2s0.1,0.7,0.1,0.9v1.9
			c0,0.2,0,0.7-0.1,0.9c-0.1,0.2-0.4,0.2-0.6,0.2v0.2c0.3,0,0.7,0,1,0s0.6,0,1,0v-0.2c-0.6-0.1-0.7-0.1-0.7-0.7v-0.8l0.4-0.4l0.8,1
			c0.1,0.1,0.5,0.6,0.5,0.7c0,0.2-0.4,0.2-0.6,0.2v0.2c0.3,0,0.7,0,1,0s0.7,0,1,0v-0.2c-0.2,0-0.3,0-0.4-0.1
			C193.8,84.9,193.1,84,193,83.9 M187.2,82.2c0-0.6-0.3-1-0.9-1c-0.1,0-0.4,0-0.4,0c-0.1,0-0.1,0.2-0.1,0.2v1.7
			C186.6,83.2,187.2,83.1,187.2,82.2 M188.8,85.2v0.2c-0.2,0-0.4,0-0.6,0s-0.3,0-0.5,0l-0.3-0.4l-1.1-1.4c-0.2-0.3-0.2-0.3-0.5-0.3
			v0.8c0,0.2,0,0.7,0.1,0.9c0.1,0.2,0.4,0.2,0.6,0.2v0.2c-0.3,0-0.6,0-0.9,0s-0.7,0-1,0v-0.2c0.2,0,0.5,0,0.6-0.2s0.1-0.7,0.1-0.9
			v-1.9c0-0.2,0-0.7-0.1-0.9c-0.1-0.2-0.3-0.2-0.6-0.2V81c0.4,0,0.8,0,1.1,0s0.6,0,0.8,0c0.8,0,1.5,0.2,1.5,1.1
			c0,0.7-0.5,1.1-1.2,1.1l1.4,1.6C188.4,85.1,188.5,85.2,188.8,85.2 M182.2,83.2c0-1-0.4-2.1-1.6-2.1c-1.1,0-1.6,1.1-1.6,2.1
			s0.4,2.1,1.6,2.1S182.2,84.2,182.2,83.2 M183,83.2c0,1.3-1.1,2.3-2.4,2.3s-2.4-0.9-2.4-2.2s1.1-2.3,2.4-2.3
			C181.9,80.9,183,81.9,183,83.2 M175.8,81v0.2c0.2,0,0.5,0,0.5,0.3c0,0.2-0.5,1.1-0.7,1.3l-0.4,0.7l-0.9-1.6
			c-0.1-0.1-0.2-0.3-0.2-0.5s0.3-0.2,0.5-0.2V81c-0.3,0-0.6,0-0.9,0s-0.6,0-0.9,0v0.2c0.2,0,0.3,0,0.4,0.1c0.2,0.2,0.7,1.2,0.8,1.4
			l0.6,1v0.8c0,0.6,0,0.7-0.7,0.7v0.2c0.3,0,0.7,0,1,0s0.7,0,1,0v-0.2c-0.6-0.1-0.7-0.1-0.7-0.7v-0.9l1.1-1.9
			c0.2-0.3,0.3-0.6,0.7-0.6V81c-0.2,0-0.4,0-0.6,0C176.3,81,176.1,81,175.8,81 M167.9,81v0.2c0.3,0,0.6,0,0.6,0.4
			c0,0.3-0.3,1.2-0.3,1.5l-0.5,1.4l-1.1-3.5h-0.2l-1,3.5l-0.7-2.3c0-0.2-0.2-0.7-0.2-0.8c0-0.3,0.4-0.3,0.6-0.3V81c-0.3,0-0.7,0-1,0
			s-0.6,0-0.9,0v0.2c0.2,0,0.4,0,0.5,0.2c0.1,0.1,0.2,0.5,0.2,0.6l1.2,3.5h0.2c0.2-0.5,0.4-1,0.5-1.6l0.5-1.8l1,3.4h0.2l1.1-3.5
			c0.1-0.4,0.2-0.9,0.7-0.9V81c-0.2,0-0.5,0-0.7,0C168.4,81,168.1,81,167.9,81 M160.4,85.2c-0.3,0-0.7,0-0.8-0.2s-0.1-0.5-0.1-0.7
			v-1.1c0.6,0,1,0,1.1,0.7h0.2c0-0.3,0-0.5,0-0.8s0-0.6,0-0.9h-0.2c0,0.5-0.2,0.8-1.1,0.8v-1.6c0-0.3,0-0.3,0.2-0.3h0.4
			c0.7,0,1,0,1.2,0.8h0.2v-1h-3.3v0.2c0.2,0,0.5,0,0.6,0.2s0.1,0.7,0.1,0.9V84c0,0.2,0,0.7-0.1,0.9c-0.1,0.2-0.4,0.2-0.6,0.2v0.2
			h3.6l0.1-1.1h-0.2C161.6,85.1,161.1,85.2,160.4,85.2 M155.1,81v0.2c0.3,0.1,0.5,0,0.6,0.4c0.1,0.3,0.1,0.7,0.1,1v1.8L153,81
			c-0.2,0-0.4,0-0.5,0c-0.2,0-0.4,0-0.6,0v0.2c0.4,0,0.5,0.1,0.7,0.4V84c0,0.3,0,0.7-0.1,0.9c-0.1,0.3-0.3,0.3-0.6,0.3v0.2
			c0.2,0,0.5,0,0.7,0c0.3,0,0.5,0,0.8,0v-0.2c-0.2,0-0.5,0-0.6-0.3c-0.1-0.2-0.1-0.7-0.1-1v-2.2l2.6,3.1c0.1,0.2,0.3,0.4,0.4,0.6
			h0.2v-2.8c0-0.3,0-0.9,0.1-1.2c0.1-0.3,0.3-0.3,0.5-0.3V81c-0.2,0-0.5,0-0.7,0S155.3,81,155.1,81 M209.5,66.9h2.8
			c0.3,0,0.8,0.1,0.8-0.3c0-1.1-0.6-1.7-1.6-1.7C210.2,64.8,209.7,65.8,209.5,66.9 M209.4,67.3l-0.1,0.8c0,1.6,0.8,3.4,2.6,3.4
			c0.9,0,1.6-0.6,2.1-1.2l0.4,0.4c-0.8,1-1.7,1.4-3,1.4c-2.1,0-3.8-1.5-3.8-3.6s1.6-4,3.8-4c1.6,0,3.2,0.9,3.2,2.8
			c0,0.2-0.3,0.2-0.4,0.2h-4.8V67.3z M203.4,66.7c0-1.1-1-1.7-2-1.7c-1.8,0-2.3,1.9-2.3,3.4s0.5,3.3,2.3,3.3c1.5,0,2-1.2,2-2.5V66.7
			z M206.2,71.1v0.3l-2.3,0.6c-0.2-0.4-0.3-0.8-0.3-1.3c-0.7,0.9-1.5,1.3-2.6,1.3c-2.1,0-3.6-1.6-3.6-3.7s1.4-3.9,3.6-3.9
			c0.9,0,1.8,0.3,2.4,1v-2.7c0-1,0-1.6-1.3-1.6v-0.3l2.7-0.5v8.5c0,0.5,0,1.3,0.2,1.8C205.3,71.2,205.7,71.1,206.2,71.1 M193.1,67.7
			c-1,0.5-2.9,1.1-2.9,2.5c0,0.6,0.4,1.2,1.1,1.2c0.6,0,1.4-0.5,1.8-1L193.1,67.7L193.1,67.7z M195.8,70.7l0.3,0.2
			c-0.3,0.6-0.9,1.1-1.5,1.1c-0.7,0-1.3-0.5-1.4-1.2c-0.8,0.6-1.8,1.2-2.8,1.2c-0.9,0-1.7-0.5-1.7-1.5c0-1.4,1.6-2,2.7-2.5l1.7-0.8
			c0.2-0.1,0.1-0.3,0.1-0.5c0-1.1-0.1-2-1.5-2c-0.8,0-1.5,0.1-1.6,1c0,0.4-0.3,0.7-0.7,0.7s-0.6-0.2-0.6-0.6c0-1.2,2.2-1.5,3.1-1.5
			c1.9,0,2.7,0.5,2.7,2.4v2.8c0,0.4-0.1,1.7,0.6,1.7C195.5,71.3,195.6,71,195.8,70.7 M180.5,69c0,0.6,0,1.4,0.4,1.8
			c0.4,0.5,1,0.7,1.6,0.7c1.8,0,2.4-1.8,2.4-3.3s-0.5-3.3-2.3-3.3c-0.7,0-1.3,0.4-1.7,1s-0.4,1.2-0.4,1.9V69z M179.1,74.4v-6.6
			c0-0.5,0-1.6-0.1-2c-0.1-0.6-0.6-0.5-1.1-0.5V65c0.8-0.1,1.7-0.3,2.4-0.5v1.4c0.7-0.9,1.4-1.4,2.5-1.4c2.2,0,3.7,1.7,3.7,3.8
			c0,2.1-1.5,3.8-3.6,3.8c-1,0-1.7-0.3-2.4-1v3.3c0,1.2-0.1,1.6,1.3,1.7v0.3c-0.6,0-1.2-0.1-1.9-0.1s-1.3,0.1-2,0.1V76
			C179.2,76,179.1,75.5,179.1,74.4 M176.2,69.8c0-1.5-1.1-2-2.2-2.6c-0.6-0.4-1.6-0.7-1.6-1.5c0-0.6,0.5-0.9,1.1-0.9
			c1.1,0,1.4,0.9,1.7,1.7h0.3v-2.1h-0.2l-0.3,0.4c-0.5-0.3-1.1-0.4-1.6-0.4c-1.2,0-2.1,0.9-2.1,2c0,1.3,1,1.8,2,2.3
			c0.7,0.4,1.7,0.8,1.7,1.7c0,0.8-0.7,1.2-1.4,1.2c-1.2,0-1.8-1.1-2.1-2.1h-0.3l0.1,2.4h0.2l0.4-0.5c0.5,0.4,1.2,0.6,1.8,0.6
			C175.1,72,176.2,71.2,176.2,69.8 M159.3,66.9h2.8c0.3,0,0.8,0.1,0.8-0.3c0-1.1-0.6-1.7-1.6-1.7C160,64.8,159.5,65.8,159.3,66.9
			 M157.4,68.4c0-2.1,1.6-4,3.8-4c1.6,0,3.2,0.9,3.2,2.8c0,0.2-0.3,0.2-0.4,0.2h-4.9l-0.1,0.8c0,1.6,0.8,3.4,2.6,3.4
			c0.9,0,1.6-0.6,2.1-1.2l0.4,0.4c-0.8,1-1.7,1.4-3,1.4C159.1,72,157.4,70.6,157.4,68.4 M151.9,70.3c0,1.3,0.8,1.7,2,1.7
			c0.8,0,1.6-0.3,2-1.1l-0.3-0.2c-0.3,0.4-0.6,0.8-1.2,0.8c-0.9,0-1-0.8-1-1.6v-4.8h1.9v-0.5h-1.9v-2h-0.3c-0.4,1-1.2,1.6-2,2.1V65
			h0.9L151.9,70.3L151.9,70.3z M146.7,67.7c-1,0.5-2.9,1.1-2.9,2.5c0,0.6,0.4,1.2,1.1,1.2c0.7,0,1.4-0.5,1.8-1
			C146.7,70.4,146.7,67.7,146.7,67.7z M149.4,70.7l0.3,0.2c-0.3,0.6-0.9,1.1-1.5,1.1c-0.7,0-1.3-0.5-1.5-1.2
			c-0.8,0.6-1.8,1.2-2.8,1.2c-0.9,0-1.7-0.5-1.7-1.5c0-1.4,1.6-2,2.7-2.5l1.7-0.8c0.2-0.1,0.1-0.3,0.1-0.5c0-1.1-0.1-2-1.5-2
			c-0.8,0-1.5,0.1-1.6,1c0,0.4-0.3,0.7-0.7,0.7s-0.6-0.2-0.6-0.6c0-1.2,2.2-1.5,3.1-1.5c1.9,0,2.7,0.5,2.7,2.4v2.8
			c0,0.4-0.1,1.7,0.6,1.7C149.1,71.3,149.2,71,149.4,70.7 M139.4,70.8c0.4,0.4,0.6,0.7,1.2,0.8v0.3c-0.3,0-0.7-0.1-1-0.1
			c-0.4,0-0.7,0.1-1,0.1l-3.2-3.4l-0.3,0.3v1c0,1.1-0.2,1.6,1.2,1.7v0.3c-0.6,0-1.3-0.1-1.9-0.1c-0.6,0-1.2,0.1-1.9,0.1v-0.3
			c1.3-0.1,1.2-0.5,1.2-1.6v-6.7c0-0.4,0-1.3-0.2-1.6c-0.2-0.4-0.7-0.4-1.1-0.4v-0.3l2.7-0.5v7.9l1-1.3c0.3-0.3,1.3-1.3,1.3-1.7
			c0-0.4-0.6-0.4-0.9-0.4v-0.3c0.5,0,1,0.1,1.5,0.1s1-0.1,1.4-0.1v0.3c-0.9,0-1.1,0.3-1.7,1l-1.5,1.7L139.4,70.8z"/>
	</g>
	<g id="Diane_Von_Furstenberg" class="st1">
		<g>
			<g>
				<path class="st2" d="M101.7,70.3c0.1,0,0.7,0,0.8,0c0-0.1,0-7.8,0-8c-0.1,0-0.7,0-0.8,0C101.7,62.4,101.7,70.2,101.7,70.3z"/>
				<path class="st2" d="M108.2,62.3c0,0.1-3.2,7.8-3.2,8c0.1,0,0.8,0,0.8,0c0-0.1,0.9-2.4,0.9-2.4h3.4l0,0c0,0,0.9,2.3,0.9,2.4
					c0.1,0,0.7,0,0.9,0c-0.1-0.2-3.1-7.9-3.1-8C108.8,62.3,108.3,62.3,108.2,62.3z M107.1,67.2L107.1,67.2l1.4-3.8l1.4,3.8H107.1z"
					/>
				<path class="st2" d="M114.6,62.3c0,0.1,0,7.8,0,8c0.1,0,0.7,0,0.8,0c0-0.1,0-6.6,0-6.6l4.5,6.6c0.1,0,0.7,0,0.8,0
					c0-0.1,0-7.8,0-8c-0.1,0-0.7,0-0.8,0c0,0.1,0,6.6,0,6.6l-4.5-6.6C115.3,62.3,114.7,62.3,114.6,62.3z"/>
				<path class="st2" d="M124.9,66.5c0,0,3.9,0,4,0c0-0.1,0-0.6,0-0.7c-0.1,0-4,0-4,0V63c0,0,4.3,0,4.4,0c0-0.1,0-0.6,0-0.7
					c-0.1,0-5.1,0-5.2,0c0,0.1,0,7.8,0,8c0.1,0,5.3,0,5.5,0c0-0.1,0-0.6,0-0.7c-0.1,0-4.7,0-4.7,0S124.9,66.5,124.9,66.5z"/>
				<path class="st2" d="M159.4,65.7c-0.1,0-3.9,0-3.9,0V63c0,0,4.3,0,4.4,0c0-0.1,0-0.6,0-0.7c-0.1,0-5.1,0-5.2,0c0,0.1,0,7.8,0,8
					c0.1,0,0.7,0,0.8,0c0-0.1,0-3.9,0-3.9s3.8,0,3.9,0C159.4,66.3,159.4,65.8,159.4,65.7z"/>
				<path class="st2" d="M163.8,67.7c0,0,0-5.2,0-5.4c-0.1,0-0.7,0-0.8,0c0,0.1,0,5.4,0,5.4c0,1.7,1.1,2.8,2.9,2.8s2.9-1,2.9-2.8
					c0,0,0-5.3,0-5.4c-0.1,0-0.7,0-0.8,0c0,0.1,0,5.4,0,5.4c0,1.7-1.2,2.1-2.1,2.1C165,69.8,163.8,69.4,163.8,67.7z"/>
				<path class="st2" d="M175.8,66.7c1.4-0.1,2.2-0.9,2.2-2.2c0-1-0.6-2.2-2.3-2.2c0,0-3.4,0-3.5,0c0,0.1,0,7.8,0,8
					c0.1,0,0.7,0,0.8,0c0-0.1,0-3.5,0-3.5h1.8l0,0c0,0.1,2.3,3.2,2.5,3.5c0.1,0,0.8,0,1,0C178.2,70.1,175.8,66.7,175.8,66.7
					L175.8,66.7z M173,66v-3h2.5c1.2,0,1.8,0.5,1.8,1.5c0,0.7-0.3,1.5-1.9,1.5H173z"/>
				<path class="st2" d="M183.9,65.7L183.9,65.7c-1.1-0.3-2.1-0.5-2.1-1.6c0-0.8,0.9-1.3,1.8-1.3c0.8,0,1.8,0.4,2.1,1.4l0,0
					c0.1-0.1,0.6-0.4,0.7-0.4l0,0c-0.4-1.1-1.4-1.8-2.8-1.8c-1.2,0-2.5,0.7-2.5,2c0,1.7,1.4,2,2.6,2.3c1.1,0.3,2.1,0.6,2.1,1.7
					c0,0.9-0.9,1.6-2.2,1.6c-1.1,0-1.9-0.7-2.2-1.8l0,0c-0.1,0-0.7,0.3-0.8,0.3l0,0c0.3,1.4,1.4,2.2,3,2.2c1.9,0,2.9-0.9,2.9-2.4
					C186.5,66.4,185.1,66,183.9,65.7z"/>
				<path class="st2" d="M191,70.3c0.1,0,0.7,0,0.8,0c0-0.1,0-7.2,0-7.2s2.4,0,2.5,0c0-0.1,0-0.6,0-0.7c-0.1,0-5.6,0-5.8,0
					c0,0.1,0,0.6,0,0.7c0.1,0,2.5,0,2.5,0S191,70.2,191,70.3z"/>
				<path class="st2" d="M197.8,66.5c0,0,3.9,0,4,0c0-0.1,0-0.6,0-0.7c-0.1,0-4,0-4,0V63c0,0,4.3,0,4.4,0c0-0.1,0-0.6,0-0.7
					c-0.1,0-5.1,0-5.2,0c0,0.1,0,7.8,0,8c0.1,0,5.3,0,5.5,0c0-0.1,0-0.6,0-0.7c-0.1,0-4.7,0-4.7,0V66.5z"/>
				<path class="st2" d="M205.5,62.3c0,0.1,0,7.8,0,8c0.1,0,0.7,0,0.8,0c0-0.1,0-6.6,0-6.6l4.5,6.6c0.1,0,0.7,0,0.8,0
					c0-0.1,0-7.8,0-8c-0.1,0-0.7,0-0.8,0c0,0.1,0,6.6,0,6.6l-4.5-6.6C206.2,62.3,205.6,62.3,205.5,62.3z"/>
				<path class="st2" d="M219.2,66c1.2-0.2,1.6-0.8,1.6-1.8c0-0.7-0.5-1.9-2.4-1.9c0,0-3.3,0-3.4,0c0,0.1,0,7.8,0,8
					c0.1,0,3.5,0,3.5,0c1.9,0,2.6-1.1,2.6-2.2C221.1,67,220.4,66.1,219.2,66z M215.8,63h2.5c1.2,0,1.7,0.4,1.7,1.3
					c0,0.8-0.6,1.3-1.8,1.3h-2.4V63z M218.5,69.6h-2.7v-3.2h2.5c1.3,0,2.1,0.6,2.1,1.7C220.3,68.8,219.8,69.6,218.5,69.6z"/>
				<path class="st2" d="M225,66.5c0,0,3.9,0,4,0c0-0.1,0-0.6,0-0.7c-0.1,0-4,0-4,0V63c0,0,4.3,0,4.4,0c0-0.1,0-0.6,0-0.7
					c-0.1,0-5.1,0-5.2,0c0,0.1,0,7.8,0,8c0.1,0,5.3,0,5.5,0c0-0.1,0-0.6,0-0.7c-0.1,0-4.7,0-4.7,0V66.5z"/>
				<path class="st2" d="M236.3,66.7c1.4-0.1,2.2-0.9,2.2-2.2c0-1-0.6-2.2-2.3-2.2c0,0-3.4,0-3.5,0c0,0.1,0,7.8,0,8
					c0.1,0,0.7,0,0.8,0c0-0.1,0-3.5,0-3.5h1.8l2.5,3.5c0.1,0,0.8,0,1,0C238.7,70.1,236.3,66.7,236.3,66.7L236.3,66.7z M233.5,66v-3
					h2.5c1.2,0,1.8,0.5,1.8,1.5c0,0.7-0.3,1.5-1.9,1.5H233.5z"/>
				<path class="st2" d="M246.9,68.7L246.9,68.7c-0.2,0.3-1,1.1-2.3,1.1c-2.6,0-2.8-2.6-2.8-3.5c0-1.7,0.9-3.5,2.9-3.5
					c1.1,0,1.9,0.5,2.3,1.7l0,0c0.1,0,0.6-0.3,0.7-0.4l0,0c-0.6-1.3-1.6-2-3.1-2c-2.5,0-3.6,2.1-3.6,4.2c0,2.7,1.3,4.2,3.6,4.2
					c2.2,0,2.9-1.4,3-1.5c0,0,0-2.4,0-2.5c-0.1,0-2.9,0-3,0c0,0.1,0,0.6,0,0.7c0.1,0,2.3,0,2.3,0L246.9,68.7L246.9,68.7z"/>
				<path class="st2" d="M94.8,62.3c0,0-2.4,0-2.5,0c0,0.1,0,7.8,0,8c0.1,0,2.5,0,2.5,0c2.2,0,4-1.8,4-4
					C98.8,64.1,97,62.3,94.8,62.3z M94.8,69.5h-1.7v-6.4h1.7c1.8,0,3.2,1.4,3.2,3.2C98,68.1,96.6,69.5,94.8,69.5z"/>
				<path class="st2" d="M133.6,65.7c-0.1,0-0.6,0-0.7,0c0.1,0.1,1.6,4.5,1.6,4.6c0.1,0,0.5,0,0.5,0c0-0.1,1.8-4.5,1.8-4.6
					c-0.1,0-0.7,0-0.7,0c0,0.1-1.3,3.5-1.3,3.5L133.6,65.7z"/>
				<path class="st2" d="M141.8,65.6c-1.4,0-2.3,1-2.3,2.4s0.9,2.4,2.3,2.4c1.4,0,2.3-1,2.3-2.4S143.1,65.6,141.8,65.6z M141.8,69.8
					c-0.9,0-1.6-0.7-1.6-1.8c0-1.1,0.6-1.8,1.6-1.8c0.9,0,1.6,0.7,1.6,1.8C143.3,69,142.7,69.8,141.8,69.8z"/>
				<path class="st2" d="M147,65.7c0,0.1,0,4.5,0,4.6c0.1,0,0.5,0,0.6,0c0-0.1,0-3.6,0-3.6s2.6,3.5,2.6,3.6c0.1,0,0.5,0,0.6,0
					c0-0.1,0-4.5,0-4.6c-0.1,0-0.5,0-0.6,0c0,0.1,0,3.6,0,3.6s-2.5-3.5-2.6-3.6C147.6,65.7,147.1,65.7,147,65.7z"/>
			</g>
		</g>
		<g>
			<g>
				<g>
					<polygon class="st2" points="275.8,64.2 274.2,64.2 271.2,67.4 271.2,60.5 270,60.5 270,71.7 271.2,71.7 271.2,69 272.1,68.1 
						274.8,71.7 276.4,71.7 273,67.2 					"/>
				</g>
				<g>
					<path class="st2" d="M277.2,64.2v7.4h1.3v-3.4c0-0.7,0-1.3,0.3-1.9c0.4-0.6,1-0.9,1.7-0.9c0.2,0,0.4,0,0.5,0V64
						c-0.5,0-1.8,0-2.6,1.5v-1.4L277.2,64.2L277.2,64.2z"/>
				</g>
				<path class="st2" d="M286.6,67.2V67c0-0.8,0-2.1-1.7-2.1c-1.6,0-1.6,1.2-1.6,1.6l-1.3-0.1c0-0.3,0.1-0.7,0.3-1.1
					c0.4-0.8,1.3-1.3,2.6-1.3c0.7,0,1.6,0.2,2.2,0.6c0.8,0.7,0.8,1.5,0.8,2.5v2.4c0,0.7,0,1.1,0.5,1.1c0.2,0,0.3,0,0.4-0.1v1.1
					c-0.2,0-0.4,0.1-0.8,0.1c-0.6,0-1.2-0.2-1.3-1.1c-0.4,0.4-1.1,1.2-2.6,1.2s-2.5-0.9-2.5-2.1c0-0.4,0.1-0.8,0.3-1.1
					c0.4-0.6,1.2-1.1,3.4-1.3L286.6,67.2z M284.6,68.4c-1.4,0.3-1.6,0.8-1.6,1.3c0,0.6,0.5,1.1,1.4,1.1s1.6-0.3,2-1.1
					c0.2-0.4,0.2-0.6,0.2-1.7C286.1,68.1,285.4,68.2,284.6,68.4z"/>
				<g>
					<polygon class="st2" points="292.5,69.9 290.5,64.2 289.2,64.2 291.9,71.7 293,71.7 295.7,64.2 294.4,64.2 					"/>
				</g>
				<path class="st2" d="M303.5,69.4c-0.2,0.5-0.8,2.5-3.4,2.5c-2.2,0-3.6-1.5-3.6-4c0-2.8,2-3.9,3.6-3.9c1.4,0,2.8,0.8,3.3,2.6
					c0.1,0.6,0.1,1.2,0.1,1.5h-5.7c0,1.2,0.6,2.8,2.4,2.8c1.1,0,1.8-0.7,2-1.7L303.5,69.4z M302.1,67.2c-0.1-2-1.5-2.3-2.1-2.3
					c-1.1,0-2,0.8-2.1,2.3H302.1z"/>
				<g>
					<path class="st2" d="M306.9,61.9h-1.3v2.4h-1.2v1h1.2v4.8c0,1,0,1.7,1.4,1.7c0.5,0,1-0.1,1.2-0.1v-1c-0.3,0.1-0.6,0.2-0.8,0.2
						c-0.5,0-0.5-0.4-0.5-1.3v-4.3h1.4v-1h-1.4L306.9,61.9L306.9,61.9z"/>
				</g>
			</g>
			<rect x="258.6" y="60.2" class="st2" width="0.2" height="11.9"/>
		</g>
	</g>
	<g id="Nate_Beerkus" class="st1">
		<path class="st2" d="M297.6,72.4c2.6,0,4.5-1.4,4.5-3.7l0,0c0-2.1-1.4-3-4-3.7c-2.4-0.6-3-1-3-2l0,0c0-0.8,0.8-1.5,2-1.5
			c1.1,0,2.3,0.4,3.4,1.3l1.2-1.7c-1.3-1-2.7-1.6-4.5-1.6c-2.5,0-4.3,1.5-4.3,3.6l0,0c0,2.3,1.5,3.1,4.2,3.7c2.3,0.5,2.8,1,2.8,1.9
			l0,0c0,1-0.9,1.6-2.2,1.6c-1.6,0-2.8-0.6-4-1.6l-1.3,1.6C293.9,71.8,295.7,72.4,297.6,72.4 M277.1,72.4c3.3,0,5.4-1.9,5.4-5.6
			v-7.1h-2.2v7.2c0,2.3-1.2,3.5-3.2,3.5s-3.2-1.3-3.2-3.6v-7.1h-2.2v7.2C271.8,70.6,273.9,72.4,277.1,72.4 M251.6,72.3h2.2v-3.6l2-2
			l4.3,5.6h2.7l-5.4-7.1l5.2-5.4h-2.7l-6,6.3v-6.3h-2.2v12.5H251.6z M233.2,65.9v-4.2h3.2c1.6,0,2.6,0.7,2.6,2.1l0,0
			c0,1.3-1,2.1-2.6,2.1H233.2z M231,72.3h2.2v-4.4h2.8l3.1,4.4h2.6l-3.4-4.7c1.8-0.5,3-1.7,3-3.8l0,0c0-1.1-0.4-2-1-2.7
			c-0.8-0.8-2-1.3-3.6-1.3h-5.6v12.5H231z M211.3,72.3h9.4v-2h-7.2v-3.4h6.3v-2h-6.3v-3.3h7.1v-2h-9.3V72.3z M192.8,70.3v-3.4h3.5
			c1.7,0,2.6,0.6,2.6,1.7l0,0c0,1.1-0.9,1.7-2.4,1.7C196.5,70.3,192.8,70.3,192.8,70.3z M192.8,65v-3.3h3.2c1.4,0,2.2,0.6,2.2,1.6
			l0,0c0,1.1-0.9,1.7-2.4,1.7H192.8z M190.7,72.3h5.8c2.8,0,4.6-1.2,4.6-3.4l0,0c0-1.7-1-2.5-2.5-3c0.9-0.5,1.8-1.3,1.8-2.8l0,0
			c0-0.8-0.3-1.5-0.8-2.1c-0.7-0.7-1.8-1.1-3.3-1.1h-5.6V72.3z M157.9,72.3h9.4v-2h-7.2v-3.4h6.3v-2h-6.3v-3.3h7.1v-2h-9.3
			C157.9,59.6,157.9,72.3,157.9,72.3z M141.7,72.3h2.2V61.8h4v-2h-10.2v2h4V72.3z M121.7,67.3l2.1-5l2.2,5H121.7z M117.3,72.3h2.3
			l1.3-3h5.9l1.3,3h2.3l-5.5-12.6h-2L117.3,72.3z M98.1,72.3h2.2v-8.9l6.9,8.9h1.8V59.8h-2.2v8.7l-6.7-8.7h-2
			C98.1,59.8,98.1,72.3,98.1,72.3z"/>
	</g>
	<g id="Kids_2_" class="st1">
		<g>
			<g>
				<g>
					<g>
						<g>
							<defs>
								<rect id="SVGID_1_" x="130.2" y="39" width="140.9" height="53"/>
							</defs>
							<clipPath id="SVGID_2_">
								<use xlink:href="#SVGID_1_"  style="overflow:visible;"/>
							</clipPath>
							<path class="st3" d="M237.1,91.8h0.4v-7.5l6,7.5h0.3v-8.1h-0.4v7.5l-6-7.5h-0.3V91.8z M229.5,91.6c-2.2,0-3.7-1.8-3.7-3.8
								l0,0c0-2.1,1.5-3.8,3.6-3.8c2.2,0,3.7,1.8,3.7,3.8l0,0C233.2,89.8,231.7,91.6,229.5,91.6 M229.5,91.9c2.5,0,4.1-2,4.1-4.2
								l0,0c0-2.2-1.6-4.2-4.1-4.2s-4.1,2-4.1,4.2l0,0C225.4,89.9,227,91.9,229.5,91.9 M221.4,91.8h0.4v-8.1h-0.4V91.8z M214.9,91.8
								h0.4V84h2.9v-0.4H212V84h2.9V91.8L214.9,91.8z M206.4,91.9c1.4,0,2.4-0.6,3.2-1.4l-0.3-0.3c-0.7,0.7-1.6,1.3-2.9,1.3
								c-2.1,0-3.6-1.7-3.6-3.8l0,0c0-2.1,1.5-3.8,3.6-3.8c1.4,0,2.2,0.6,2.9,1.2l0.3-0.3c-0.8-0.7-1.6-1.3-3.1-1.3
								c-2.3,0-4,1.9-4,4.2l0,0C202.4,90,204.1,91.9,206.4,91.9 M193.7,91.8h5.8v-0.4h-5.4v-3.6h4.8v-0.4h-4.8V84h5.3v-0.4h-5.7
								C193.7,83.6,193.7,91.8,193.7,91.8z M185.2,91.8h5.3v-0.4h-4.9v-7.8h-0.4L185.2,91.8L185.2,91.8z M176.8,91.8h5.3v-0.4h-4.9
								v-7.8h-0.4L176.8,91.8L176.8,91.8z M169.1,91.6c-2.2,0-3.7-1.8-3.7-3.8l0,0c0-2.1,1.5-3.8,3.6-3.8c2.2,0,3.7,1.8,3.7,3.8l0,0
								C172.8,89.8,171.3,91.6,169.1,91.6 M169.1,91.9c2.5,0,4.1-2,4.1-4.2l0,0c0-2.2-1.6-4.2-4.1-4.2s-4.1,2-4.1,4.2l0,0
								C165.1,89.9,166.7,91.9,169.1,91.9 M159.3,91.9c1.4,0,2.4-0.6,3.2-1.4l-0.3-0.3c-0.7,0.7-1.6,1.3-2.9,1.3
								c-2.1,0-3.6-1.7-3.6-3.8l0,0c0-2.1,1.5-3.8,3.6-3.8c1.4,0,2.2,0.6,2.9,1.2l0.3-0.3c-0.8-0.7-1.6-1.3-3.1-1.3
								c-2.3,0-4,1.9-4,4.2l0,0C155.3,90,157,91.9,159.3,91.9"/>
						</g>
					</g>
				</g>
			</g>
			<g>
				<g>
					<g>
						<g>
							<defs>
								<rect id="SVGID_3_" x="130.2" y="39" width="140.9" height="53"/>
							</defs>
							<clipPath id="SVGID_4_">
								<use xlink:href="#SVGID_3_"  style="overflow:visible;"/>
							</clipPath>
							<path class="st4" d="M237.1,91.8h0.4v-7.5l6,7.5h0.3v-8.1h-0.4v7.5l-6-7.5h-0.3V91.8z M229.5,91.6c-2.2,0-3.7-1.8-3.7-3.8
								l0,0c0-2.1,1.5-3.8,3.6-3.8c2.2,0,3.7,1.8,3.7,3.8l0,0C233.2,89.8,231.7,91.6,229.5,91.6z M229.5,91.9c2.5,0,4.1-2,4.1-4.2
								l0,0c0-2.2-1.6-4.2-4.1-4.2s-4.1,2-4.1,4.2l0,0C225.4,89.9,227,91.9,229.5,91.9z M221.4,91.8h0.4v-8.1h-0.4V91.8z
								 M214.9,91.8h0.4V84h2.9v-0.4H212V84h2.9V91.8L214.9,91.8z M206.4,91.9c1.4,0,2.4-0.6,3.2-1.4l-0.3-0.3
								c-0.7,0.7-1.6,1.3-2.9,1.3c-2.1,0-3.6-1.7-3.6-3.8l0,0c0-2.1,1.5-3.8,3.6-3.8c1.4,0,2.2,0.6,2.9,1.2l0.3-0.3
								c-0.8-0.7-1.6-1.3-3.1-1.3c-2.3,0-4,1.9-4,4.2l0,0C202.4,90,204.1,91.9,206.4,91.9z M193.7,91.8h5.8v-0.4h-5.4v-3.6h4.8v-0.4
								h-4.8V84h5.3v-0.4h-5.7C193.7,83.6,193.7,91.8,193.7,91.8z M185.2,91.8h5.3v-0.4h-4.9v-7.8h-0.4L185.2,91.8L185.2,91.8z
								 M176.8,91.8h5.3v-0.4h-4.9v-7.8h-0.4L176.8,91.8L176.8,91.8z M169.1,91.6c-2.2,0-3.7-1.8-3.7-3.8l0,0c0-2.1,1.5-3.8,3.6-3.8
								c2.2,0,3.7,1.8,3.7,3.8l0,0C172.8,89.8,171.3,91.6,169.1,91.6z M169.1,91.9c2.5,0,4.1-2,4.1-4.2l0,0c0-2.2-1.6-4.2-4.1-4.2
								s-4.1,2-4.1,4.2l0,0C165.1,89.9,166.7,91.9,169.1,91.9z M159.3,91.9c1.4,0,2.4-0.6,3.2-1.4l-0.3-0.3
								c-0.7,0.7-1.6,1.3-2.9,1.3c-2.1,0-3.6-1.7-3.6-3.8l0,0c0-2.1,1.5-3.8,3.6-3.8c1.4,0,2.2,0.6,2.9,1.2l0.3-0.3
								c-0.8-0.7-1.6-1.3-3.1-1.3c-2.3,0-4,1.9-4,4.2l0,0C155.3,90,157,91.9,159.3,91.9z"/>
						</g>
					</g>
				</g>
			</g>
			<g>
				<g>
					<g>
						<g>
							<defs>
								<rect id="SVGID_5_" x="130.2" y="39" width="140.9" height="53"/>
							</defs>
							<clipPath id="SVGID_6_">
								<use xlink:href="#SVGID_5_"  style="overflow:visible;"/>
							</clipPath>
							<path class="st5" d="M259.2,74.8c6.9,0,11.9-3.9,11.9-9.8v-0.1c0-5.3-3.6-8.1-11.3-9.8c-7.6-1.6-9.4-3.5-9.4-6.7v-0.1
								c0-3.1,2.9-5.6,7.4-5.6c3.6,0,6.8,1.1,10,3.8l2.3-3c-3.5-2.8-7.1-4.3-12.2-4.3c-6.6,0-11.4,4-11.4,9.5v0.1
								c0,5.7,3.7,8.3,11.7,10c7.3,1.5,9,3.4,9,6.6v0.1c0,3.4-3.1,5.9-7.7,5.9c-4.8,0-8.3-1.6-11.9-4.9l-2.4,2.9
								C249.2,72.9,253.7,74.8,259.2,74.8 M215.2,43.2c8.8,0,14.4,6.1,14.4,13.7V57c0,7.7-5.6,13.6-14.4,13.6h-8.1V43.2H215.2z
								 M203.2,74.3h12c10.9,0,18.4-7.6,18.4-17.4v-0.1c0-9.8-7.5-17.3-18.4-17.3h-12C203.2,39.5,203.2,74.3,203.2,74.3z
								 M178.4,74.3h3.9V39.5h-3.9V74.3z M130.2,74.3h3.9V65l7.4-7.5l13.3,16.8h4.9l-15.5-19.5l14.9-15.3h-5l-20,20.8V39.5h-3.9
								L130.2,74.3L130.2,74.3z"/>
						</g>
					</g>
				</g>
			</g>
			<g>
				<g>
					<g>
						<g>
							<defs>
								<rect id="SVGID_7_" x="130.2" y="39" width="140.9" height="53"/>
							</defs>
							<clipPath id="SVGID_8_">
								<use xlink:href="#SVGID_7_"  style="overflow:visible;"/>
							</clipPath>
							<path class="st6" d="M259.2,74.8c6.9,0,11.9-3.9,11.9-9.8v-0.1c0-5.3-3.6-8.1-11.3-9.8c-7.6-1.6-9.4-3.5-9.4-6.7v-0.1
								c0-3.1,2.9-5.6,7.4-5.6c3.6,0,6.8,1.1,10,3.8l2.3-3c-3.5-2.8-7.1-4.3-12.2-4.3c-6.6,0-11.4,4-11.4,9.5v0.1
								c0,5.7,3.7,8.3,11.7,10c7.3,1.5,9,3.4,9,6.6v0.1c0,3.4-3.1,5.9-7.7,5.9c-4.8,0-8.3-1.6-11.9-4.9l-2.4,2.9
								C249.2,72.9,253.7,74.8,259.2,74.8z M215.2,43.2c8.8,0,14.4,6.1,14.4,13.7V57c0,7.7-5.6,13.6-14.4,13.6h-8.1V43.2H215.2z
								 M203.2,74.3h12c10.9,0,18.4-7.6,18.4-17.4v-0.1c0-9.8-7.5-17.3-18.4-17.3h-12C203.2,39.5,203.2,74.3,203.2,74.3z
								 M178.4,74.3h3.9V39.5h-3.9V74.3z M130.2,74.3h3.9V65l7.4-7.5l13.3,16.8h4.9l-15.5-19.5l14.9-15.3h-5l-20,20.8V39.5h-3.9
								L130.2,74.3L130.2,74.3z"/>
						</g>
					</g>
				</g>
			</g>
			<g>
				<g>
					<g>
						<g>
							<defs>
								<rect id="SVGID_9_" x="130.2" y="39" width="140.9" height="53"/>
							</defs>
							<clipPath id="SVGID_10_">
								<use xlink:href="#SVGID_9_"  style="overflow:visible;"/>
							</clipPath>
							<line class="st7" x1="130.2" y1="87.7" x2="147.6" y2="87.7"/>
						</g>
					</g>
				</g>
			</g>
			<g>
				<g>
					<g>
						<g>
							<defs>
								<rect id="SVGID_11_" x="130.2" y="39" width="140.9" height="53"/>
							</defs>
							<clipPath id="SVGID_12_">
								<use xlink:href="#SVGID_11_"  style="overflow:visible;"/>
							</clipPath>
							<line class="st8" x1="252.4" y1="87.7" x2="269.8" y2="87.7"/>
						</g>
					</g>
				</g>
			</g>
		</g>
	</g>
	<g id="Pendleton" class="st1">
		<path class="st2" d="M143,41.2L143,41.2c-1.4-1.1-2.8-1.4-6-1.4h-6.9v0.7h2.2v22.8h-2.2V64h7.3v-0.7h-2.1V54h1.8
			c2.5,0,4-0.3,5.2-1c2-1.3,3.2-3.5,3.2-5.9C145.4,44.3,144.7,42.6,143,41.2z M137,53.2h-1.8V40.5h1.8c4.5,0,5.1,3.4,5.1,6.4l0,0
			C142.1,50,141.5,53.2,137,53.2z"/>
		<path class="st2" d="M161.4,55.1h-0.5v0.1c-0.6,2.2-0.8,2.8-1.4,3.6c-0.8,1.1-1.2,1.3-3.3,1.3H153v-8h1.6c2.3,0,2.7,0.4,2.9,3.4
			v0.1h0.6v-7.4h-0.6v0.1c-0.1,2.2-0.4,2.9-1.7,3.1c-0.3,0.1-1.5,0.1-2.8,0.1v-7.7h1.9c0.6,0,1.3,0,1.9,0c0.9,0.1,1.6,0.5,2.2,1.2
			c0.6,0.9,1,1.9,1.2,3l0,0h0.5l-0.2-5h-12.7v0.7h2.2v16.4h-2.2v0.7h13.1L161.4,55.1z"/>
		<path class="st2" d="M212.1,60.1h-2.2v0.7h13l0.5-5.7h-0.5v0.1c-0.7,2.2-0.8,2.8-1.4,3.6c-0.8,1.1-1.2,1.3-3.3,1.3h-3.1v-8h1.6
			c2.3,0,2.7,0.4,2.9,3.4v0.1h0.6v-7.4h-0.6v0.1c0,2.2-0.4,2.9-1.7,3.1c-0.3,0.1-1.5,0.1-2.8,0.1v-7.7h1.9c0.6,0,1.3,0,1.9,0
			c0.9,0.1,1.6,0.5,2.2,1.2c0.6,0.9,1,1.9,1.2,3l0,0h0.5l-0.2-5h-12.7v0.7h2.2L212.1,60.1L212.1,60.1z"/>
		<path class="st2" d="M191.1,59.5c2.4-1.8,3.8-4.7,3.8-7.7c0.1-2.6-1-5.2-2.9-7l0,0c-1.7-1.5-3-1.9-6.9-1.9h-6v0.7h2.2V60h-2.2v0.7
			h6.3C188.5,60.8,189.7,60.5,191.1,59.5z M184.1,60.1V43.7h1c0.8,0,1.5,0,2.3,0.1c1,0.1,2,0.5,2.8,1.3c1,1.1,1.2,2.6,1.2,6.8l0,0
			c0.1,1.8-0.1,3.7-0.5,5.4c-0.3,1.2-1.2,2.1-2.3,2.5c-0.9,0.3-1.2,0.4-3.4,0.4h-1.1V60.1z"/>
		<path class="st2" d="M209.3,55.1h-0.6v0.1c-0.5,2.1-0.9,3.1-1.5,3.9c-0.7,0.8-1.3,0.9-3.4,0.9h-3V43.7h2.2V43h-7.3v0.7h2.2v16.4
			h-2.2v0.7h13.1L209.3,55.1z"/>
		<path class="st2" d="M248.5,61c4.2,0,7.6-4.2,7.6-9.2s-3.5-9.2-7.6-9.2c-4.2,0-7.7,4.2-7.7,9.2C240.9,56.8,244.4,61,248.5,61z
			 M245.1,45.4c0.7-1.2,2-2,3.4-1.9c1.2,0,2.3,0.5,3.1,1.4c0.8,1,1.1,2.8,1.1,6.9c0,3.6-0.2,5.5-0.8,6.5l0,0c-0.7,1.2-2,2-3.4,1.9
			c-1.2,0-2.4-0.5-3.1-1.5c-0.8-1-1.1-2.8-1.1-6.9C244.4,48.2,244.6,46.4,245.1,45.4z"/>
		<polygon class="st2" points="267.5,43.7 269.7,43.7 269.7,55.2 261.9,43 256.3,43 256.3,43.7 258.5,43.7 258.5,60.1 256.3,60.1 
			256.3,60.8 261.4,60.8 261.4,60.1 259.3,60.1 259.3,44.4 270,61 270.5,61 270.5,43.7 272.7,43.7 272.7,43 267.5,43 		"/>
		<polygon class="st2" points="167.3,60.1 165.1,60.1 165.1,44.4 175.8,61 176.3,61 176.3,43.7 178.5,43.7 178.5,43 173.4,43 
			173.4,43.7 175.6,43.7 175.6,55.2 167.7,43 162.2,43 162.2,43.7 164.3,43.7 164.3,60.1 162.2,60.1 162.2,60.8 167.3,60.8 		"/>
		<path class="st2" d="M225.3,47.9c0.3-1.8,0.6-2.1,1.4-3.2c0.6-0.8,1.5-1.1,3-1.1h0.8V60h-2.4v0.7h7.9V60h-2.4V43.7h0.8
			c1.5,0,2.4,0.3,3,1.1c0.8,1,1,1.4,1.4,3.2l0,0h0.7l-0.2-5.1h-14.4l-0.2,5H225.3L225.3,47.9z"/>
		<path class="st2" d="M275.5,43.6c0-0.1-0.1-0.3-0.2-0.3s-0.2-0.1-0.4,0h-0.5v1.3h0.2V44h0.2c0.1,0,0.2,0,0.2,0
			c0.1,0.1,0.1,0.2,0.1,0.3v0.2h0.2c0,0,0,0,0-0.1v-0.1v-0.1c0-0.1,0-0.1-0.1-0.2s-0.1-0.1-0.2-0.1c0.1,0,0.1,0,0.2-0.1
			C275.4,43.8,275.5,43.7,275.5,43.6z M275.1,43.9c-0.1,0-0.1,0-0.2,0h-0.2v-0.5h0.2c0.1,0,0.2,0,0.3,0l0,0c0.1,0.1,0.1,0.1,0.1,0.2
			C275.2,43.8,275.2,43.8,275.1,43.9z"/>
		<path class="st2" d="M274.9,42.8c-0.6,0-1.2,0.5-1.2,1.2c0,0.3,0.1,0.6,0.3,0.8c0.2,0.2,0.5,0.3,0.8,0.3s0.6-0.1,0.8-0.3l0,0
			c0.2-0.2,0.3-0.5,0.3-0.8C276.1,43.3,275.6,42.8,274.9,42.8z M275.6,44.6c-0.4,0.4-1,0.4-1.4,0c-0.2-0.2-0.3-0.4-0.3-0.7
			s0.1-0.5,0.3-0.7l0,0c0.3-0.3,0.7-0.4,1.1-0.2s0.6,0.5,0.6,0.9C275.9,44.2,275.8,44.5,275.6,44.6z"/>
		<path class="st2" d="M176.7,74.8L176.7,74.8c-4.5,0.3-8.6,2.6-11.3,6.2c2,0.1,3.9,0.6,5.7,1.4C172.2,79.3,174.1,76.7,176.7,74.8z"
			/>
		<path class="st2" d="M178.9,74.8c2.6,1.9,4.6,4.5,5.6,7.6c1.8-0.9,3.7-1.3,5.7-1.4C187.5,77.4,183.4,75.1,178.9,74.8z"/>
		<path class="st2" d="M171.8,82.4c1.9-0.8,4-1.2,6-1.2c2.1,0,4.1,0.4,6.1,1.2c-1.1-3.2-3.2-5.8-6.1-7.6
			C175,76.5,172.9,79.2,171.8,82.4z"/>
		<path class="st2" d="M170.2,88.3c-1.2-0.2-2.3-0.6-2.3-1.4c0-0.9,1-1.3,1.8-1.3s1.5,0.4,1.9,1.1l1.3-0.9c-0.6-1.2-1.8-1.7-3.1-1.7
			c-1.7,0-3.4,0.9-3.4,2.8s1.5,2.3,3.2,2.7c1,0.2,2,0.5,2,1.5s-1.1,1.4-2,1.4s-1.8-0.5-2.4-1.3l0,0l-1.2,0.9c0.9,1.3,2,1.7,3.6,1.7
			c1.8,0,3.7-0.8,3.7-2.9C173.2,89.3,171.8,88.7,170.2,88.3z"/>
		<path class="st2" d="M186.1,84.3L186.1,84.3L186.1,84.3z"/>
		<path class="st2" d="M186.1,84.3c-1.3,0-2.5,0.6-3.1,1.8l0,0v-1.5h-1.5v4.6c0,2.1-0.9,3.6-2.9,3.6c-1.4,0-2.1-1-2.1-2.5v-5.6H175
			v5.8c0,2.3,1.1,3.8,3.5,3.8c1.3,0,2.5-0.6,3.1-1.8l0,0V94h1.5v-4.6c0-2.1,0.9-3.6,2.9-3.6c1.4,0,2.1,1,2.1,2.5v5.6h1.5v-5.8
			C189.6,85.8,188.6,84.3,186.1,84.3z"/>
		<path class="st2" d="M197.1,84.3c-1.3,0-2.5,0.6-3.3,1.6l0,0v-6.5h-1.5l0,0v14.5h1.5v-1.7l0,0c0.8,1.2,2.1,1.9,3.5,1.9
			c2.6,0,4.6-2.1,4.6-4.9c0.1-1.3-0.4-2.6-1.3-3.5C199.6,84.7,198.4,84.2,197.1,84.3z M197,92.6c-2,0-3.3-1.5-3.3-3.5
			s1.3-3.5,3.3-3.5s3.3,1.5,3.3,3.5C200.2,91.1,199,92.6,197,92.6z"/>
		<path class="st2" d="M205.5,86L205.5,86c0-0.5-0.1-1-0.1-1.5h-1.5c0,0.6,0.1,1.4,0.1,2.2v7.1h1.5v-4.6c0-2.1,0.8-3.5,2.7-3.5
			c0.3,0,0.6,0,0.8,0.1l0.1-1.6c-0.2-0.1-0.4-0.1-0.6-0.1C207.3,84.2,206.1,84.9,205.5,86z"/>
		<polygon class="st2" points="218.7,92.1 218.7,92.1 218.7,92.2 		"/>
		<path class="st2" d="M214.6,84.3c-2.7,0-4.7,2-4.7,4.9c0,2.7,1.8,4.9,4.7,4.9c1.7,0,3-0.5,4.1-1.9l-1.1-0.9
			c-0.7,0.9-1.8,1.5-2.9,1.4c-1.6,0-2.9-1.3-3-3h7.4v-0.5C219,86.1,217.2,84.3,214.6,84.3z M211.6,88.4c0.1-1.6,1.5-2.7,3-2.6
			c1.7,0,2.7,1.1,2.8,2.6H211.6z"/>
		<rect x="221.3" y="79.3" class="st2" width="1.5" height="14.5"/>
		<rect x="225.8" y="79.3" class="st2" width="1.5" height="14.5"/>
		<path class="st2" d="M237.4,88.2c0-2.6-1.1-3.9-3.9-3.9c-1.4,0-2.7,0.5-3.6,1.4l0.9,1c0.8-0.7,1.7-1,2.7-1c1.4,0,2.3,0.7,2.3,2.1
			v0.3h-0.6c-2.3,0-5.8,0.2-5.8,3.3c0,1.8,1.6,2.8,3.4,2.8c1.2,0,2.4-0.6,3-1.6l0,0c0,0.5,0,0.9,0.1,1.4h1.5
			c-0.1-0.5-0.1-1.1-0.1-1.6v-4.2L237.4,88.2L237.4,88.2z M235.8,89.9c0,1.5-0.9,2.8-2.7,2.8c-1.2,0-2-0.4-2-1.6
			c0-1.3,1.3-1.8,3.2-1.8h1.5V89.9z"/>
		<path class="st2" d="M229.8,85.7h0.1H229.8z"/>
		<path class="st2" d="M238.4,82.6c-0.3,0-0.5,0.1-0.7,0.3s-0.3,0.4-0.3,0.7c0,0.6,0.4,1,1,1c0.5,0,1-0.4,1-1S239,82.6,238.4,82.6z
			 M239.2,84c-0.1,0.3-0.5,0.5-0.8,0.5l0,0c-0.5,0-0.8-0.4-0.8-0.8c0-0.3,0.2-0.7,0.5-0.8s0.7-0.1,0.9,0.2
			C239.3,83.3,239.4,83.6,239.2,84z"/>
		<path class="st2" d="M238.8,83.6c0.1-0.1,0.1-0.1,0.1-0.2c0-0.2-0.1-0.3-0.4-0.3h-0.4v1.2h0.2v-0.5h0.2l0.3,0.5h0.2l-0.3-0.5
			C238.7,83.7,238.7,83.6,238.8,83.6z M238.4,83.5h-0.2v-0.4h0.2c0.1,0,0.3,0,0.3,0.2S238.5,83.5,238.4,83.5z"/>
		<path class="st2" d="M201.7,66.6c0-0.6-0.5-0.7-1-0.7c-0.2,0-0.3,0-0.5,0c-0.1,0-0.2,0.1-0.2,0.2c0,0.3,0,0.6,0,0.8v1.3
			c0,0.2,0,0.2,0.2,0.3c0.2,0.1,0.4,0.1,0.6,0.1c0.7,0,1-0.4,1-0.8c0-0.3-0.2-0.6-0.5-0.7l0,0C201.5,67.1,201.7,66.9,201.7,66.6z
			 M200.7,66.6c0-0.1,0-0.1,0.2-0.1l0,0c0.1,0,0.3,0.1,0.3,0.2S201.1,67,201,67c-0.2,0-0.2,0-0.2-0.2v-0.2
			C200.8,66.6,200.7,66.6,200.7,66.6z M201,68.2L201,68.2c-0.3,0-0.3,0-0.3-0.2v-0.5c0-0.1,0-0.1,0.1-0.1c0.2,0,0.5,0,0.5,0.3
			C201.3,68,201.2,68.1,201,68.2z"/>
		<path class="st2" d="M203.9,66c-0.1,0-0.2,0-0.2,0.1c-0.1,0.2-0.2,0.3-0.3,0.5c0,0.1-0.2,0.4-0.2,0.4c-0.1,0-0.3-0.5-0.5-0.9
			c0-0.1-0.1-0.1-0.2-0.1h-0.3c-0.1,0-0.1,0-0.1,0.1c0,0,0,0.1,0.1,0.2c0.2,0.4,0.4,0.8,0.6,1.2c0,0.1,0.1,0.2,0.1,0.3
			c0,0.1,0,0.1,0,0.2c0,0.2,0,0.4,0,0.5c0,0.2,0.1,0.2,0.3,0.2s0.3,0,0.3-0.2s0-0.4,0-0.5s0-0.3,0.1-0.4c0.2-0.3,0.4-0.7,0.6-1.1
			c0-0.1,0.1-0.3,0.1-0.3C204.3,66,204.1,66,203.9,66z"/>
		<rect x="152.2" y="67.1" class="st2" width="45.4" height="1.2"/>
		<rect x="206.3" y="67.1" class="st2" width="45.4" height="1.2"/>
		<polygon class="st2" points="150.9,66.7 150.4,66.7 150.4,67.4 149.6,67.4 149.6,68 150.4,68 150.4,68.7 150.9,68.7 150.9,68 
			151.7,68 151.7,67.4 150.9,67.4 		"/>
		<polygon class="st2" points="253.5,66.7 252.9,66.7 252.9,67.4 252.1,67.4 252.1,68 252.9,68 252.9,68.7 253.5,68.7 253.5,68 
			254.2,68 254.2,67.4 253.5,67.4 		"/>
		<polygon class="st2" points="148.5,66.7 147.9,66.7 147.9,67.4 147.2,67.4 147.2,68 147.9,68 147.9,68.7 148.5,68.7 148.5,68 
			149.2,68 149.2,67.4 148.5,67.4 		"/>
		<polygon class="st2" points="255.9,66.7 255.3,66.7 255.3,67.4 254.6,67.4 254.6,68 255.3,68 255.3,68.7 255.9,68.7 255.9,68 
			256.6,68 256.6,67.4 255.9,67.4 		"/>
		<polygon class="st2" points="146,66.7 145.4,66.7 145.4,67.4 144.7,67.4 144.7,68 145.4,68 145.4,68.7 146,68.7 146,68 146.8,68 
			146.8,67.4 146,67.4 		"/>
		<polygon class="st2" points="258.4,66.7 257.8,66.7 257.8,67.4 257,67.4 257,68 257.8,68 257.8,68.7 258.4,68.7 258.4,68 
			259.1,68 259.1,67.4 258.4,67.4 		"/>
	</g>
	<g id="Kate_Spade_2_" class="st1">
		<path class="st9" d="M226.4,59.3h-0.3V72h0.3V59.3z M277.6,61h-1.4v2.5h-1.3v1.1h1.3v5.2c0,1,0,1.8,1.5,1.8c0.5,0,1.1-0.1,1.3-0.1
			v-1.1c-0.3,0.1-0.6,0.2-0.9,0.2c-0.6,0-0.6-0.4-0.6-1.3v-4.6h1.5v-1.1h-1.5L277.6,61L277.6,61z M268.1,66.8
			c0.2-1.6,1.1-2.4,2.3-2.4c0.7,0,2.2,0.4,2.3,2.4H268.1z M272.7,68.9c-0.2,1.1-0.9,1.9-2.1,1.9c-1.9,0-2.6-1.7-2.6-3h6
			c0-0.3,0-0.9-0.2-1.6c-0.5-2-2-2.8-3.5-2.8c-1.7,0-3.8,1.1-3.8,4.1c0,2.7,1.5,4.3,3.9,4.3c2.7,0,3.4-2.1,3.6-2.7L272.7,68.9z
			 M262.3,69.6l-2.1-6.1h-1.4l2.9,7.9h1.2l2.9-7.9h-1.4L262.3,69.6z M256,67.6c0,1.2,0,1.3-0.2,1.8c-0.4,0.8-1.2,1.2-2.1,1.2
			c-1,0-1.5-0.5-1.5-1.2c0-0.6,0.3-1.1,1.7-1.4C254.7,67.8,255.5,67.7,256,67.6 M254.7,66.8c-2.4,0.2-3.2,0.7-3.7,1.4
			c-0.2,0.4-0.4,0.8-0.4,1.2c0,1.3,1.1,2.3,2.7,2.3c1.5,0,2.3-0.9,2.7-1.3c0.1,1,0.8,1.2,1.4,1.2c0.4,0,0.6-0.1,0.8-0.1v-1.2
			c-0.1,0.1-0.3,0.1-0.4,0.1c-0.6,0-0.6-0.4-0.6-1.1v-2.6c0-1.1,0-2-0.9-2.7c-0.6-0.5-1.6-0.7-2.3-0.7c-1.3,0-2.3,0.5-2.7,1.4
			c-0.3,0.5-0.3,0.9-0.3,1.2l1.4,0.1c0-0.4,0-1.7,1.7-1.7c1.8,0,1.8,1.4,1.8,2.2v0.2L254.7,66.8z M245.9,63.5v7.9h1.3v-3.7
			c0-0.7,0-1.4,0.3-2c0.4-0.6,1.1-0.9,1.8-0.9c0.2,0,0.4,0,0.6,0v-1.5c-0.5,0-2,0.1-2.7,1.6v-1.5L245.9,63.5L245.9,63.5z
			 M244.4,63.5h-1.7l-3.2,3.4v-7.3h-1.4v11.9h1.4v-2.8l1-1l2.9,3.8h1.7l-3.6-4.8L244.4,63.5z M167.6,55c0,0-0.1,0.1-0.1,0.3v0.3h5.3
			v-0.3c0-0.2-0.1-0.3-0.1-0.3c-0.5-0.4-2-2-1.9-3.3c0-0.1,0-0.1,0.1-0.2v-0.1c0,0,0.1,0.1,0.2,0.2l0.1,0.1c0.3,0.3,1.2,1,2.4,1
			c1.5,0,2.6-1.4,2.5-2.9c0,0,0.2-1.7-3.4-4.1c0,0-1.7-1.1-2.5-2l-0.1-0.1l0,0c0,0-0.1,0-0.1,0.1c-0.8,0.9-2.5,2-2.5,2
			c-3.5,2.4-3.4,4.1-3.4,4.1c-0.1,1.5,1,2.9,2.5,2.9c1.2,0,2.1-0.7,2.4-1l0.1-0.1c0.1-0.1,0.1-0.1,0.2-0.2v0.1
			c0,0.1,0.1,0.1,0.1,0.2C169.6,53,168,54.6,167.6,55 M191.2,84.5l-1-1.1l1.1-1.4c0.2-0.3,0.3-0.4,0.7-0.4v-0.2c-0.2,0-0.5,0-0.7,0
			c-0.3,0-0.6,0-0.8,0v0.2c0.2,0,0.5,0,0.5,0.3c0,0.4-1.4,1.8-1.7,2.2v-1.7c0-0.7,0-0.7,0.7-0.8v-0.2c-0.4,0-0.7,0-1.1,0
			c-0.3,0-0.7,0-1,0v0.2c0.2,0,0.5,0,0.6,0.2s0.1,0.7,0.1,0.9v2c0,0.2,0,0.7-0.1,0.9c-0.1,0.2-0.4,0.2-0.6,0.2V86c0.4,0,0.7,0,1.1,0
			c0.3,0,0.7,0,1,0l0,0c-0.7-0.1-0.7-0.1-0.7-0.8v-0.8l0.4-0.5l0.9,1c0.1,0.1,0.6,0.7,0.6,0.8c0,0.2-0.5,0.2-0.6,0.2v0.2
			c0.4,0,0.7,0,1.1,0c0.4,0,0.7,0,1.1,0V86c-0.2,0-0.3,0-0.4-0.1C192,85.6,191.3,84.6,191.2,84.5 M185,82.7c0-0.6-0.4-1.1-1-1.1
			c-0.1,0-0.4,0-0.5,0s-0.1,0.2-0.1,0.3v1.8C184.3,83.8,185,83.7,185,82.7 M186.7,86v0.2c-0.2,0-0.4,0-0.6,0s-0.4,0-0.5,0l-0.3-0.4
			l-1.2-1.5c-0.2-0.3-0.2-0.3-0.6-0.3v0.8c0,0.2,0,0.7,0.1,0.9c0.1,0.2,0.4,0.2,0.6,0.2v0.2c-0.3,0-0.7,0-1,0c-0.4,0-0.7,0-1.1,0V86
			c0.2,0,0.5,0,0.6-0.2s0.1-0.7,0.1-0.9v-2c0-0.2,0-0.7-0.1-0.9c-0.1-0.2-0.4-0.2-0.6-0.2v-0.2c0.4,0,0.8,0,1.2,0c0.3,0,0.6,0,0.9,0
			c0.8,0,1.6,0.2,1.6,1.2c0,0.8-0.6,1.1-1.3,1.2l1.5,1.7C186.2,85.8,186.3,85.9,186.7,86 M179.6,83.8c0-1.1-0.4-2.2-1.7-2.2
			c-1.2,0-1.7,1.2-1.7,2.2c0,1.1,0.4,2.2,1.7,2.2C179.2,86,179.6,84.8,179.6,83.8 M180.5,83.8c0,1.4-1.1,2.4-2.6,2.4
			c-1.4,0-2.6-1-2.6-2.4s1.2-2.4,2.6-2.4S180.5,82.4,180.5,83.8 M172.9,81.5v0.2c0.2,0,0.5,0,0.5,0.3s-0.5,1.2-0.7,1.4l-0.5,0.7
			l-0.9-1.7c-0.1-0.2-0.2-0.3-0.2-0.5s0.4-0.2,0.5-0.2v-0.2c-0.3,0-0.7,0-1,0s-0.6,0-1,0v0.2c0.2,0,0.3,0,0.4,0.1
			c0.2,0.2,0.8,1.3,0.9,1.5l0.6,1.1v0.9c0,0.7,0,0.7-0.7,0.8v0.2c0.4,0,0.7,0,1.1,0c0.4,0,0.7,0,1.1,0V86c-0.7-0.1-0.7-0.1-0.7-0.8
			v-0.9l1.2-2c0.2-0.3,0.3-0.6,0.7-0.6v-0.2c-0.2,0-0.5,0-0.7,0C173.4,81.5,173.1,81.5,172.9,81.5 M164.4,81.5v0.2
			c0.4,0,0.6,0,0.6,0.5c0,0.3-0.3,1.2-0.4,1.6l-0.5,1.5l-1.2-3.7h-0.2l-1.1,3.8l-0.7-2.4c-0.1-0.2-0.2-0.7-0.2-0.9
			c0-0.3,0.4-0.3,0.6-0.3v-0.2c-0.3,0-0.7,0-1,0s-0.7,0-1,0v0.2c0.2,0,0.4,0,0.5,0.2c0.1,0.1,0.2,0.5,0.3,0.7l1.2,3.8h0.2
			c0.2-0.6,0.4-1.1,0.6-1.7l0.6-1.9l1.1,3.6h0.2l1.2-3.7c0.1-0.4,0.2-0.9,0.7-0.9v-0.2c-0.2,0-0.5,0-0.7,0
			C164.9,81.5,164.6,81.5,164.4,81.5 M156.4,85.9c-0.3,0-0.7,0-0.9-0.3c-0.1-0.2-0.1-0.5-0.1-0.7v-1.2c0.7,0,1,0,1.1,0.8h0.2
			c0-0.3,0-0.6,0-0.9s0-0.6,0-1h-0.2c0,0.5-0.2,0.9-1.1,0.9v-1.7c0-0.3,0-0.3,0.2-0.3h0.5c0.7,0,1.1,0,1.2,0.9h0.2v-1.1H154v0.2
			c0.2,0,0.5,0,0.6,0.2s0.1,0.7,0.1,0.9v1.9c0,0.2,0,0.7-0.1,0.9c-0.1,0.2-0.4,0.2-0.6,0.2v0.2h3.8l0.1-1.1h-0.2
			C157.6,85.8,157.1,85.9,156.4,85.9 M150.7,81.5v0.2c0.4,0.1,0.5,0,0.6,0.4c0.1,0.3,0.1,0.8,0.1,1.1v2l-3-3.6c-0.2,0-0.4,0-0.6,0
			s-0.4,0-0.7,0v0.2c0.4,0,0.5,0.1,0.8,0.4v2.6c0,0.3,0,0.7-0.1,1s-0.3,0.3-0.6,0.3v0.2c0.3,0,0.5,0,0.8,0s0.5,0,0.8,0V86
			c-0.3,0-0.5,0-0.6-0.3c-0.1-0.2-0.1-0.8-0.1-1v-2.4l2.8,3.3c0.2,0.2,0.3,0.4,0.5,0.6h0.2v-3c0-0.3,0-1,0.1-1.2
			c0.1-0.3,0.3-0.3,0.5-0.3v-0.2c-0.3,0-0.5,0-0.7,0C151.2,81.5,150.9,81.5,150.7,81.5 M208.9,66.3h3c0.3,0,0.9,0.1,0.9-0.4
			c0-1.1-0.6-1.8-1.7-1.8C209.6,64.1,209.1,65.1,208.9,66.3 M208.7,66.8l-0.1,0.9c0,1.7,0.9,3.6,2.8,3.6c0.9,0,1.7-0.6,2.3-1.3
			l0.4,0.4c-0.8,1-1.9,1.5-3.2,1.5c-2.2,0-4.1-1.6-4.1-3.9s1.7-4.3,4-4.3c1.8,0,3.4,1,3.4,2.9c0,0.2-0.3,0.2-0.4,0.2
			C213.8,66.8,208.7,66.8,208.7,66.8z M202.4,66.1c0-1.1-1.1-1.8-2.1-1.8c-1.9,0-2.5,2-2.5,3.6s0.5,3.5,2.5,3.5
			c1.6,0,2.1-1.3,2.1-2.7V66.1z M205.4,70.9v0.4l-2.4,0.6c-0.2-0.4-0.3-0.9-0.4-1.4c-0.8,0.9-1.6,1.4-2.8,1.4c-2.3,0-3.8-1.7-3.8-4
			c0-2.2,1.5-4.2,3.8-4.2c1,0,1.9,0.4,2.6,1.1V62c0-1.1-0.1-1.7-1.3-1.7V60l2.9-0.6v9.1c0,0.5,0,1.4,0.2,1.9
			C204.3,70.9,204.8,70.9,205.4,70.9 M191.3,67.2c-1.1,0.5-3.1,1.2-3.1,2.7c0,0.7,0.4,1.3,1.1,1.3s1.5-0.5,2-1V67.2z M194.2,70.5
			l0.3,0.2c-0.3,0.6-1,1.2-1.6,1.2c-0.7,0-1.4-0.6-1.5-1.3c-0.8,0.7-1.9,1.3-3,1.3c-1,0-1.9-0.6-1.9-1.6c0-1.5,1.7-2.2,2.9-2.7
			l1.8-0.9c0.2-0.1,0.1-0.3,0.1-0.5c0-1.2-0.1-2.1-1.6-2.1c-0.9,0-1.6,0.1-1.7,1c0,0.4-0.3,0.8-0.7,0.8s-0.7-0.3-0.7-0.6
			c0-1.3,2.4-1.6,3.3-1.6c2,0,2.9,0.5,2.9,2.6v3c0,0.5-0.1,1.8,0.6,1.8C193.8,71,194,70.7,194.2,70.5 M177.8,68.6c0,0.6,0,1.5,0.4,2
			s1.1,0.7,1.8,0.7c1.9,0,2.5-1.9,2.5-3.5s-0.5-3.5-2.5-3.5c-0.8,0-1.4,0.4-1.8,1c-0.4,0.6-0.4,1.3-0.4,2V68.6z M176.3,74.4v-7
			c0-0.5,0-1.8-0.1-2.2c-0.1-0.6-0.6-0.6-1.2-0.6v-0.4c0.9-0.1,1.8-0.4,2.6-0.5v1.5c0.7-1,1.5-1.5,2.7-1.5c2.4,0,4,1.8,4,4.1
			c0,2.2-1.6,4-3.9,4c-1.1,0-1.8-0.3-2.6-1v3.5c0,1.3-0.1,1.8,1.4,1.8v0.4c-0.7,0-1.3-0.1-2-0.1s-1.4,0.1-2.2,0.1v-0.4
			C176.4,76.1,176.3,75.6,176.3,74.4 M173.3,69.5c0-1.6-1.1-2.1-2.4-2.7c-0.7-0.4-1.7-0.7-1.7-1.6c0-0.6,0.6-1,1.1-1
			c1.1,0,1.5,1,1.8,1.9h0.4v-2.2h-0.2l-0.4,0.4c-0.5-0.3-1.2-0.4-1.7-0.4c-1.2,0-2.2,0.9-2.2,2.2c0,1.4,1.1,1.9,2.2,2.5
			c0.8,0.4,1.8,0.8,1.8,1.8c0,0.9-0.7,1.3-1.5,1.3c-1.3,0-1.9-1.1-2.2-2.3h-0.4L168,72h0.2l0.5-0.5c0.5,0.4,1.3,0.6,2,0.6
			C172,71.9,173.3,71,173.3,69.5 M155.2,66.3h3c0.3,0,0.9,0.1,0.9-0.4c0-1.1-0.6-1.8-1.7-1.8C155.9,64.1,155.4,65.1,155.2,66.3
			 M153.1,68c0-2.3,1.7-4.3,4-4.3c1.8,0,3.4,1,3.4,2.9c0,0.2-0.3,0.2-0.4,0.2H155l-0.1,0.9c0,1.7,0.9,3.6,2.8,3.6
			c0.9,0,1.7-0.6,2.3-1.3l0.4,0.4c-0.8,1-1.9,1.5-3.2,1.5C155,71.9,153.1,70.3,153.1,68 M147.3,70c0,1.3,0.9,1.8,2.2,1.8
			c0.9,0,1.8-0.3,2.1-1.1l-0.3-0.2c-0.3,0.5-0.7,0.8-1.3,0.8c-1,0-1.1-0.8-1.1-1.7v-5.1h2V64h-2v-2.1h-0.3c-0.4,1-1.3,1.7-2.2,2.3
			v0.3h0.9C147.3,64.5,147.3,70,147.3,70z M141.7,67.2c-1.1,0.5-3.1,1.2-3.1,2.7c0,0.7,0.4,1.3,1.1,1.3c0.7,0,1.5-0.5,2-1V67.2z
			 M144.6,70.5l0.3,0.2c-0.3,0.6-1,1.2-1.6,1.2c-0.7,0-1.4-0.6-1.6-1.3c-0.8,0.7-1.9,1.3-3,1.3c-1,0-1.9-0.6-1.9-1.6
			c0-1.5,1.7-2.2,2.8-2.7l1.8-0.9c0.2-0.1,0.1-0.3,0.1-0.5c0-1.2-0.1-2.1-1.6-2.1c-0.9,0-1.6,0.1-1.7,1c0,0.4-0.3,0.8-0.7,0.8
			s-0.7-0.3-0.7-0.6c0-1.3,2.4-1.6,3.3-1.6c2,0,2.9,0.5,2.9,2.6v3c0,0.5-0.1,1.8,0.6,1.8C144.2,71,144.4,70.7,144.6,70.5
			 M133.9,70.5c0.5,0.4,0.6,0.7,1.2,0.8v0.3c-0.4,0-0.7-0.1-1.1-0.1c-0.4,0-0.7,0.1-1.1,0.1l-3.4-3.6l-0.4,0.4v1.1
			c0,1.2-0.2,1.7,1.3,1.8v0.3c-0.7,0-1.3-0.1-2-0.1s-1.3,0.1-2,0.1v-0.3c1.3-0.1,1.3-0.5,1.3-1.7v-7.1c0-0.4,0-1.4-0.2-1.7
			c-0.2-0.4-0.7-0.4-1.2-0.5v-0.4l2.9-0.6v8.4l1.2-1.3c0.3-0.3,1.4-1.4,1.4-1.8s-0.7-0.5-1-0.5v-0.4c0.5,0,1.1,0.1,1.6,0.1
			s1-0.1,1.5-0.1v0.4c-1,0-1.1,0.3-1.8,1l-1.7,1.9L133.9,70.5z"/>
	</g>
	<g id="Chilewich_2_" class="st1">
		<path class="st10" d="M263.7,72.5c0.2,0,0.5,0.1,0.7,0.2s0.4,0.3,0.5,0.5s0.2,0.4,0.2,0.7c0,0.2-0.1,0.5-0.2,0.7s-0.3,0.4-0.5,0.5
			s-0.4,0.2-0.7,0.2c-0.2,0-0.5-0.1-0.7-0.2s-0.4-0.3-0.5-0.5s-0.2-0.4-0.2-0.7c0-0.2,0.1-0.5,0.2-0.7s0.3-0.4,0.5-0.5
			C263.3,72.6,263.5,72.5,263.7,72.5 M263.7,72.8c-0.2,0-0.4,0-0.5,0.1c-0.2,0.1-0.3,0.2-0.4,0.4c-0.1,0.2-0.1,0.4-0.1,0.5
			c0,0.2,0,0.4,0.1,0.5c0.1,0.2,0.2,0.3,0.4,0.4c0.2,0.1,0.4,0.1,0.5,0.1c0.2,0,0.4,0,0.5-0.1c0.2-0.1,0.3-0.2,0.4-0.4
			c0.1-0.2,0.1-0.4,0.1-0.5c0-0.2,0-0.4-0.1-0.5c-0.1-0.2-0.2-0.3-0.4-0.4C264.1,72.9,263.9,72.8,263.7,72.8z M263.1,74.6v-1.4h0.3
			c0.3,0,0.4,0,0.5,0s0.2,0,0.2,0.1c0.1,0,0.1,0.1,0.1,0.1c0,0.1,0.1,0.1,0.1,0.2s0,0.2-0.1,0.3c-0.1,0.1-0.2,0.1-0.3,0.1
			c0,0,0.1,0,0.1,0.1l0.1,0.1c0,0,0,0.1,0.1,0.2l0.2,0.3H264l-0.1-0.2c-0.1-0.2-0.1-0.3-0.2-0.3s-0.1-0.1-0.2-0.1h-0.1v0.6
			L263.1,74.6L263.1,74.6z M263.4,73.8h0.1c0.2,0,0.3,0,0.3,0s0.1,0,0.1-0.1v-0.1v-0.1l-0.1-0.1c0,0-0.1,0-0.3,0h-0.1V73.8z"/>
		<path class="st10" d="M144.6,66.9c-1.2-1.3-2.1-1.8-3.5-1.8c-2.2,0-3.9,1.8-3.9,4.1c0,2.4,1.7,4.1,3.9,4.1c1.4,0,2.4-0.5,3.6-2
			v2.5c-1.3,0.9-2.2,1.2-3.5,1.2c-3.3,0-5.9-2.5-5.9-5.8s2.6-5.9,5.9-5.9c1.3,0,2.3,0.3,3.5,1L144.6,66.9"/>
		<g>
			<path class="st10" d="M153.5,55.2v9.7c0.9-1.1,1.8-1.5,3.2-1.5c1.3,0,2.6,0.6,3.2,1.5c0.5,0.8,0.6,1.5,0.6,3v6.9h-1.9V68
				c0-2.1-0.7-2.9-2.3-2.9c-2,0-2.8,1.2-2.8,4.1v5.6h-1.9V55.2H153.5"/>
			<rect x="168.2" y="63.6" class="st10" width="1.9" height="11.2"/>
			<rect x="177.8" y="55.2" class="st10" width="1.9" height="19.6"/>
			<path class="st10" d="M188.7,69.6c0.1,2.3,1.5,3.8,3.5,3.8c1.5,0,2.4-0.6,3.4-2.3l1.6,0.9c-0.5,0.9-0.8,1.3-1.4,1.8
				c-1,0.9-2.3,1.3-3.8,1.3c-3.2,0-5.5-2.4-5.5-5.8c0-3.5,2.2-5.9,5.4-5.9s5.3,2.3,5.3,5.9v0.4h-8.5 M192.1,65.1
				c-1.6,0-3,1.2-3.3,2.9h6.6C195,66.2,193.7,65.1,192.1,65.1z"/>
			<polyline class="st10" points="208.2,71.2 211.7,62.7 215.1,71.2 218.5,63.6 220.6,63.6 215.1,75.5 211.7,67.2 208.2,75.5 
				202.7,63.6 204.9,63.6 208.2,71.2 			"/>
			<rect x="226.7" y="63.6" class="st10" width="1.9" height="11.2"/>
			<path class="st10" d="M245,66.9c-1.2-1.3-2.1-1.8-3.5-1.8c-2.2,0-3.9,1.8-3.9,4.1c0,2.4,1.7,4.1,3.9,4.1c1.4,0,2.4-0.5,3.6-2v2.5
				c-1.3,0.9-2.2,1.2-3.5,1.2c-3.3,0-5.9-2.5-5.9-5.8s2.6-5.9,5.9-5.9c1.3,0,2.3,0.3,3.5,1v2.6"/>
			<path class="st10" d="M253.9,55.2v9.7c0.9-1.1,1.8-1.5,3.2-1.5c1.3,0,2.6,0.6,3.2,1.5c0.5,0.8,0.6,1.5,0.6,3v6.9H259V68
				c0-2.1-0.7-2.9-2.3-2.9c-2,0-2.8,1.2-2.8,4.1v5.6H252V55.2H253.9"/>
		</g>
	</g>
	<g id="Jonathan_Adler_1_" class="st1">
		<g>
			<path class="st9" d="M118.2,70.4c0,0.8,0,1.9-0.7,2.7c-0.9,1.1-2.4,1.1-3.5,1.1h-2.1v-3.1h1.2c1.3,0,1.4-0.5,1.4-1.3v-9.9h3.7
				V70.4z"/>
			<path class="st9" d="M134.2,67.2c0,1.3-0.2,3.8-2.5,5.7c-1.6,1.3-3.3,1.6-4.6,1.6c-1.1,0-3.3-0.2-5.2-2.1c-1.3-1.4-2-3.3-2-5.3
				c0-1.3,0.2-3.8,2.5-5.7c1.6-1.3,3.3-1.6,4.6-1.6C131.6,59.9,134.2,63.3,134.2,67.2z M123.9,67.1c0,2.5,1.1,4.4,3.3,4.4
				c1.1,0,1.9-0.5,2.2-0.9c0.8-0.9,1-2.1,1-3.3c0-2.4-1-4.3-3.3-4.3C125,63,123.9,64.8,123.9,67.1z"/>
			<path class="st9" d="M148.4,60.1v14.2h-3.5l-5.1-8.5v8.5h-3.4V60.1h3.5l5.2,8.5v-8.5H148.4z"/>
			<path class="st9" d="M158.2,60.1l5.4,14.2h-3.8l-0.7-1.9h-5.3l-0.6,1.9h-3.6l5.1-14.2C154.7,60.1,158.2,60.1,158.2,60.1z
				 M154.7,69.8h3.4l-1.7-5L154.7,69.8z"/>
			<path class="st9" d="M169.4,63.1v11.2h-3.7V63.1h-3.8v-3h11.2v3H169.4z"/>
			<path class="st9" d="M182.9,74.3v-6.2h-4.8v6.2h-3.7V60.1h3.7V65h4.7v-4.9h3.7v14.2C186.5,74.3,182.9,74.3,182.9,74.3z"/>
			<path class="st9" d="M196.4,60.1l5.4,14.2H198l-0.7-1.9H192l-0.6,1.9h-3.6l5.1-14.2C192.9,60.1,196.4,60.1,196.4,60.1z
				 M192.9,69.8h3.4l-1.7-5L192.9,69.8z"/>
			<path class="st9" d="M215.1,60.1v14.2h-3.5l-5.1-8.5v8.5h-3.4V60.1h3.5l5.2,8.5v-8.5H215.1z"/>
			<path class="st9" d="M230.5,60.1l5.4,14.2h-3.8l-0.7-1.9h-5.3l-0.6,1.9h-3.6l5.1-14.2C227,60.1,230.5,60.1,230.5,60.1z M227,69.8
				h3.4l-1.7-5L227,69.8z"/>
			<path class="st9" d="M240.1,60.1c3.5,0,6,0.1,7.9,1.8c1,1,1.9,2.8,1.9,5.4c0,0.9-0.1,1.8-0.3,2.6c-0.3,0.9-0.9,3-3.4,3.9
				c-1.3,0.5-2.8,0.5-5.2,0.5h-3.9V60.1H240.1z M240.7,63.3v7.9h1.5c1.6,0,3.2-0.1,3.8-2.3c0.1-0.4,0.2-0.9,0.2-1.4
				c0-0.7-0.1-1.4-0.3-2c-0.7-2.1-2.5-2.2-3.6-2.2C242.3,63.3,240.7,63.3,240.7,63.3z"/>
			<path class="st9" d="M261.2,71.1v3.2h-9.6V60.1h3.7v11.1L261.2,71.1L261.2,71.1z"/>
			<path class="st9" d="M274.3,71.3v3H263V60.1h10.7V63h-7.1v2.3h5.6v2.8h-5.6v3.3h7.7L274.3,71.3L274.3,71.3z"/>
			<path class="st9" d="M281.7,60.1c1.6,0,3.5,0,4.9,1.2c0.8,0.7,1.5,2,1.5,3.5c0,1.8-0.9,3.5-2.9,4.1l2.9,5.4h-3.9l-2.6-4.8h-1.9
				v4.8h-3.6V60.1H281.7z M279.7,63.1v3.6h1.2c1.3,0,1.9,0,2.4-0.2c0.7-0.3,0.9-1,0.9-1.6c0-0.8-0.4-1.2-0.7-1.4
				c-0.6-0.4-1.6-0.4-2.5-0.4H279.7z"/>
		</g>
	</g>
</g>
<g>
	<g>
		<g>
			<path class="st9" d="M36.5,96.8c0-7,5-12.1,9.4-12.1c4.5,0,9.4,5,9.4,12.1c0,7-4.7,12.1-9.4,12.1
				C41.5,108.9,36.5,103.9,36.5,96.8z M52.2,96.8c0-6.2-1.5-11.6-6.2-11.6s-6,5.2-6,11.4s1.5,11.6,6.2,11.6
				C50.8,108.2,52.2,103,52.2,96.8z"/>
			<path class="st9" d="M65.8,88.6v15.1c0,3.3,0.6,4.2,3.2,4.2h0.2v0.5h-7.6v-0.5h0.5c2.2,0,3.1-0.8,3.1-4.2V87.6
				c-0.5-0.6-1.8-1.7-3.7-1.8v-0.5h5.4l14.1,19V89.9c0-3.3-0.6-4.2-3.2-4.2h-0.4v-0.5H85v0.5h-0.5c-2.2,0-3.1,0.8-3.1,4.2v18.8h-0.8
				L65.8,88.6z"/>
			<path class="st9" d="M91,107.8h1c1.5,0,2.2-0.5,2.2-2v-18c0-1.7-0.5-2-2.2-2h-1v-0.5H108l0.4,8.2H108c-0.6-5-1.8-7.7-6.8-7.7
				h-2.2c-1.5,0-2.2,0.4-2.2,2v8.2h1.7c3.3,0,4.2-2,4.3-4.9h0.5v10.4h-0.5c0-2.9-1-5.2-4.3-5.2h-1.7v9.2c0,1.7,0.6,2,2.2,2h2.7
				c4.7,0,5.9-3.3,6.8-8.6h0.5l-0.5,9.1H91V107.8z"/>
			<path class="st9" d="M128.3,107.8h1c1.5,0,2.2-0.4,2.2-2v-18c0-1.7-0.5-2-2.2-2h-1v-0.5h9.1v0.5h-1c-1.5,0-2.2,0.4-2.2,2v10.9
				l7.4-8c1.8-2,2-2.7,2-3.3c0-1-1-1.5-2.5-1.5h-0.4v-0.5h8.2v0.5c-1.8,0-2.7,0.6-4.3,2.5l-5.5,6l7.7,11.4c1,1.4,1.5,2,3.1,2h0.4
				v0.5h-8.6v-0.5h0.8c1,0,1.5-0.4,1.5-0.8c0-0.4-0.2-0.6-0.5-1.2l-6.4-9.4l-2.9,3.2v6.2c0,1.7,0.6,2,2.2,2h1v0.5h-9.1L128.3,107.8
				L128.3,107.8z"/>
			<path class="st9" d="M156.3,107.8h1c1.5,0,2.2-0.4,2.2-2v-18c0-1.7-0.5-2-2.2-2h-1v-0.5h9.2v0.5h-1c-1.5,0-2.2,0.4-2.2,2v17.9
				c0,1.7,0.6,2,2.2,2h1v0.5h-9.2V107.8z"/>
			<path class="st9" d="M176.7,88.6v15.1c0,3.3,0.6,4.2,3.1,4.2h0.2v0.5h-7.6v-0.5h0.5c2.2,0,3.1-0.8,3.1-4.2V87.6
				c-0.5-0.6-1.8-1.7-3.7-1.8v-0.5h5.4l14.1,19V89.9c0-3.3-0.6-4.2-3.1-4.2h-0.2v-0.5h7.6v0.5h-0.4c-2.2,0-3.1,0.8-3.1,4.2v18.8
				h-0.8L176.7,88.6z"/>
			<path class="st9" d="M201.6,96.8c0-7.4,4.9-12.1,9.4-12.1c1.7,0,3.1,0.6,4.3,1.5c0.4,0.2,0.6,0.5,1.3,0.5c0.5,0,1-0.6,1.4-2h0.4
				l0.4,8.9h-0.5c-1.3-5.4-4.2-8.2-7.2-8.2c-4.2,0-6,5.5-6,11.2c0,5.9,2.2,11.2,6.6,11.2c3.1,0,4.7-2.2,4.7-4.5v-2.9
				c0-1.7-0.6-2-2.2-2h-1.2v-0.5h8v0.5h-0.2c-1.5,0-2.2,0.4-2.2,2v7.9h-0.4c-0.5-1.3-1.2-2-1.7-2c-0.4,0-0.8,0.2-1.2,0.5
				c-1.4,1-2.3,1.5-4.3,1.5C206.2,108.6,201.6,103.9,201.6,96.8z"/>
			<path class="st9" d="M231.9,107.2c-0.6-0.4-1-0.6-1.7-0.6s-1,0.6-1.4,2h-0.5l-0.2-9.1h0.5c1.2,6.4,5.5,8.5,8.9,8.5
				c2.5,0,4.5-1.7,4.5-4.5c0-3.1-2.7-4.3-6.2-5.4c-3.5-1.2-7.6-2.2-7.6-7c0-3.5,2.7-6.2,6.2-6.2c1.8,0,3.3,0.5,4.7,1.5
				c0.5,0.4,0.8,0.5,1.3,0.5c0.5,0,0.8-0.5,1.4-2h0.5l0.2,9.1h-0.5c-1.4-6.4-4.7-8.6-7.6-8.6c-2.7,0-4.5,2-4.5,4.5
				c0,2.3,0.8,3.9,6,5.4c4.9,1.3,7.4,3.1,7.4,7c0,3.9-2.7,6.4-6.2,6.4C234.6,108.8,233.1,107.8,231.9,107.2z"/>
			<path class="st9" d="M262.1,107.8h1c1.5,0,2.2-0.4,2.2-2v-18c0-1.7-0.5-2-2.2-2h-1v-0.5h9.5v0.5h-1.5c-1.5,0-2.2,0.4-2.2,2v17.9
				c0,1.7,0.6,2,2.2,2h1.5c5.5,0,6.2-3.1,6.8-8.5h0.5l-0.5,9.1h-16.3V107.8z"/>
			<path class="st9" d="M285.3,107.8c1.8-0.4,2.5-1.4,3.3-3.7l7.2-19.4h0.6l7.6,20.8c0.6,1.8,1.5,2.3,3.1,2.3v0.5h-8.9v-0.5h1
				c1.3,0,2-0.5,2-1.2s-0.2-1.2-0.6-2.7l-1.2-3.2h-8.7l-0.6,2c-0.4,1-0.6,2-0.6,3.3c0,1.2,0.6,1.7,1.8,1.7h0.6v0.5h-6.4L285.3,107.8
				C285.4,107.8,285.3,107.8,285.3,107.8z M299.2,100.2L295,88.3l-4.2,11.9H299.2z"/>
			<path class="st9" d="M317.3,88.6v15.1c0,3.3,0.6,4.2,3.1,4.2h0.2v0.5h-7.6v-0.5h0.5c2.2,0,3.1-0.8,3.1-4.2V87.6
				c-0.5-0.6-1.8-1.7-3.7-1.8v-0.5h5.4l14.1,19V89.9c0-3.3-0.6-4.2-3.1-4.2h-0.2v-0.5h7.6v0.5h-0.4c-2.2,0-3.1,0.8-3.1,4.2v18.8
				h-0.8L317.3,88.6z"/>
			<path class="st9" d="M342.6,107.8h1c1.5,0,2.2-0.5,2.2-2v-18c0-1.7-0.5-2-2.2-2h-1v-0.5h16.9l0.4,8.2h-0.4
				c-0.6-5-1.8-7.7-6.8-7.7h-2.2c-1.5,0-2.2,0.4-2.2,2v8.2h1.7c3.3,0,4.2-2,4.3-4.9h0.5v10.4h-0.5c0-2.9-1-5.2-4.3-5.2h-1.7v9.2
				c0,1.7,0.6,2,2.2,2h2.7c4.7,0,5.9-3.3,6.8-8.6h0.5l-0.5,9.1h-17.5V107.8L342.6,107.8z"/>
		</g>
	</g>
	<g>
		<g>
			<g>
				<path class="st9" d="M222.4,41.2c0,0-0.5,0.5-0.6,0.6l0.8,3.3c0,0,0,0,0.2,0l0.5-0.2c0,0,0,0,0-0.2L222.4,41.2z"/>
				<path class="st9" d="M204.3,25.7c0.8,0.6,2,1.4,2.3,1.4c-1.2,0.5-1.3,0.5-2.2,0.5l0,0c0,0,1.4,0.8,3.7,1l-0.5-2.2
					c0-0.2,0.2-0.4,0.2-0.2c0.2,0,0.5,0,0.5,0c1,0,2,0,2.9-0.2c0.4-0.4,0-1-0.6-0.8c-2.7,0.8-6,0.4-6,0.4
					C204.4,25.6,204.1,25.6,204.3,25.7L204.3,25.7z"/>
				<path class="st9" d="M183.3,57.5c-0.4,0.8-1.4,3.1-1.7,4c-0.4,0.8-0.6,1.7-0.8,2.5c-0.2,0.4-0.5,0.6-0.2,1s1.2,0.8,1.2,0.8
					c0.2,0,0.4,0.4,0.6,0.4h2.5c0.2-0.2,0-0.5-0.2-0.6c0,0-0.2-0.2-0.2-0.4c0-0.2-0.2-0.4-0.2-0.5c0-0.4,0-0.8,0.2-1.2
					c0.2-0.4,0.4-0.6,0.6-1c0.2-0.2,0.5-0.5,0.4-0.8C185.3,61.4,183.7,58.1,183.3,57.5z M183.5,66L183.5,66h-0.7l0,0l0,0l0,0
					c0,0,0.2-0.4,0.4-0.4C183.3,65.6,183.5,66,183.5,66L183.5,66L183.5,66z M184.6,66L184.6,66L184.6,66C184.5,66,184.5,66,184.6,66
					h-0.8l0,0l0,0l0,0c0,0,0.2-0.4,0.4-0.4C184.5,65.5,184.6,66,184.6,66z"/>
				<path class="st9" d="M217.3,24.3L217.3,24.3L217.3,24.3L217.3,24.3l2,7.7c0.2-0.2,0.5-0.2,0.6-0.4l-2-7.4c0.4-0.5,0.2-0.8,0-1.2
					l0,0c0,0,0,0-0.2,0l0,0c0,0,0,0-0.2,0l0,0c-0.2,0-0.2,0-0.4,0c0,0,0,0-0.2,0c-0.2,0-0.4,0.2-0.4,0.4
					C216.9,23.9,217.1,24.2,217.3,24.3z"/>
				<path class="st9" d="M209.9,55.2c-0.2-0.5-0.4-0.8-0.6-1.3c-0.5-0.8-1.7-2-2.2-2.7c0,0,0,0.2-0.2,0.4c-0.2,0.4-0.4,0.6-0.5,1
					c-0.4,0.8-0.8,1.7-1,2.3c-0.2,0.5-0.4,0.6-0.4,0.8l0,0c0.4,0.4,1,0.8,1.4,1c-0.4,0.4-0.6,0.6-1.2,0.8c-0.2,0.2-0.4,0.4-0.6,0.4
					c-0.4,0-0.8,0.4-0.6,0.8c0.2,0.8,0.6,3.1,0.8,3.3l0.2,0.2c0.4,0.2,0.6-0.4,0.8-0.5c0.6-0.6,1.3-1.4,2.2-1.8c0.4-0.2,1.7-1,2-1.3
					c0.2-0.2,0.6-1.3,0.5-2C210.3,56.2,210.1,55.4,209.9,55.2z M204.7,60.4L204.7,60.4L204.7,60.4l-0.2-0.6l0,0l0,0l0,0
					c0,0,0.4,0,0.4,0.2C205.1,60.2,204.7,60.4,204.7,60.4L204.7,60.4z M205.1,61.4L205.1,61.4C205.1,61.4,204.9,61.6,205.1,61.4
					C204.9,61.4,204.9,61.4,205.1,61.4l-0.4-0.6l0,0l0,0l0,0c0,0,0.4,0,0.5,0.4C205.4,61.2,205.1,61.4,205.1,61.4z"/>
				<path class="st9" d="M223.1,39.6c1.2-1.2,1.7-2.7,1.4-4.3c0-0.4-0.2-0.6-0.4-1c-0.4-0.6-0.8-1-1.3-1.5c-0.6-0.5-1.7-0.6-2.5-0.5
					c-0.4,0-0.5,0.2-0.6,0.4c0,0-0.2,0-0.2,0.2c-0.6,0.5-0.8,1.5-0.4,2.2c0.4,0.4,0.6,0.5,1.2,0.5l0.6,2.9c0.2-0.2,0.5-0.4,0.6-0.6
					l-0.5-2.3c0.2,0,0.4-0.2,0.5-0.4c0.2-0.2,0.5-0.6,0.4-0.8c0.6,0.4,1,1.2,0.8,1.8c-0.2,0.8-0.5,1.5-1,2c-0.2,0.2-0.4,0.4-0.6,0.6
					c-0.2,0.2-0.4,0.4-0.6,0.5c-1.5,0.8-4.3-0.2-4.3-0.2h-0.2c0.4-0.6,1-2,1-2.3c0-0.2,0-0.5-0.2-0.6c-0.2-0.2-0.4,0-0.5,0.2
					c-0.2,0.2-0.4,0.5-0.4,0.5c-0.4,0.5-0.8,1-1.2,1.4c-0.2,0.2-0.2,0.2-0.4,0.4l0,0c-0.4-0.2-0.6-0.4-0.8-0.4
					c-0.5-0.2-1-0.4-1.5-0.5c-1-0.4-1.8-0.2-2.9,0c-0.8,0.2-1.8,0-2.7-0.2c-0.8-0.2-1.7,0-2.3,0.5c-0.5,0.4-1,0.8-1.4,1.3
					c-0.2,0.2-0.4,0.5-0.4,0.8s0,0.6-0.2,1c-0.2,0.4-0.4,0.5-0.6,0.6c-0.4,0.4-0.5,0.6-0.6,0.8c0,0-0.2,0.4-0.4,0.5v0.2
					c0,0.2,0,0.4,0,0.5c0,0.2,0,0.4,0,0.5c0,0,0,0,0,0.2c0,0.2,0,0.2,0,0.2c0,0.2,0,0.2,0,0.2c0,0.4-0.2,0.5-0.2,0.6
					c0,0.1-0.2,0.4-0.2,0.5v0.2c0,0.2,0,0.4,0,0.4l0,0c0,0.4,0,0.5,0.2,0.8v0.2l0,0c0,0.2,0,0.4,0.2,0.5V48l0,0l0,0
					c0.4-0.2,0.6-0.4,0.8-0.5l0,0c0,0,0.2-0.2,0.5-0.4c0,0,0.2,0,0.2-0.2c0,0-0.6-1.7-0.6-1.8c0-0.1,0.2-0.2,0.2-0.2
					c0.2,0,1.2,2.2,1.2,2.2c0.2,0.2,0.4,0.2,0.4,0.2c0.2-0.2,0.6-0.6,0.6-0.6c-0.2-0.4-0.5-1-0.5-1.2c0-0.2,0.3-0.2,0.3-0.2
					s0.4,0.6,0.6,1h0.2c0.2-0.2,0.4-0.2,0.5-0.4l0.2-0.2c0.2,0,0.4-0.2,0.4-0.2l0.2-0.2l0,0l0.2-0.2l0,0c0,0-0.5-1.3-0.5-1.5
					c0-0.2,0.2-0.4,0.4-0.2c0.2,0.2,0.6,1.2,0.6,1.5v0.3c0,0.4-0.2,0.5-0.4,0.6l0,0l-0.8,0.5c-0.2,0-0.5,0.4-0.6,0.5l0,0l0,0l0,0
					c-0.2,0.2-0.4,0.5-0.6,0.6c-0.2,0-0.4,0.2-0.5,0.2c0,0,0,0-0.2,0c-0.2,0-0.2,0-0.2-0.2l-0.2-0.2l-0.2-0.2l0,0h-0.2l0,0l0,0
					c-0.2,0-0.2,0.2-0.2,0.2l0,0l0,0c-0.4,0.4-0.6,0.5-1.2,0.6l0,0c0,0-0.2,0-0.2-0.2c-0.2-0.2-0.2-0.4-0.2-0.5s0-0.4-0.2-0.4v-0.4
					c0-0.4-0.2-0.6-0.2-0.8v-0.2c0-0.2,0-0.4,0-0.5v-0.2c0-0.2,0.2-0.5,0.2-0.6c0-0.1,0.2-0.4,0.2-0.6c0-0.2,0-0.2,0-0.2
					c0-0.2,0-0.2,0-0.2l0,0c0-0.2,0-0.2,0-0.5l0,0c0-0.2,0-0.4,0-0.5c0-0.2,0-0.2,0-0.4s0.2-0.5,0.4-0.6l0,0c0.4-0.4,0.5-0.6,0.8-1
					c0.2-0.2,0.5-0.5,0.5-0.8c0-0.2-0.4,0.2-0.5,0.2c-0.8,0.5-1.5,1-2.3,1.4c-0.8,0.4-4.9,0.5-5.8,0.6c-1.7,0.2-3.3,0.2-5,0.4
					c-1.4,0.2-2.7,0.6-3.5,1.8c-0.5,0.6-1,1.2-1.4,1.8c-0.5,0.8-0.8,1.4-1.2,2.3c-0.2,0.5-0.2,1-0.4,1.5c0,0.5-0.2,1-0.4,1.4
					c-0.2,0.4-0.5,0.5-0.8,0.6c-1,0.6-1.8,0.4-2.3-0.6c-0.5-0.8-0.4-1.5,0-2.3c0-0.2,0.2-0.2,0.2-0.4c0,0,0.2,0,0.4,0
					c0.5-0.4,0.5-1,0.4-1.3c0-0.5-0.4-0.8-0.5-1.2c0,0,0-0.2-0.2-0.2c0,0,0-0.2-0.2-0.2c0-0.2-0.2,0-0.2,0v0.2c0,0.2,0.2,0.4,0,0.6
					c0,0.2-0.2,0.4-0.2,0.5c-0.2,0.4-0.4,1-0.2,1.4c-0.4,0.4-0.5,1-0.5,1.2c-0.2,0.5-0.2,1,0,1.7l0,0c0.5,1.3,1.8,2.3,3.3,1.8
					c0.2,0,1-0.2,1.2,0c0.2,0.5,4.3,8.7,4.5,8.9c0.6,1,0.6,2.2,0.6,3.2c0,0.6,0,0.8,0.6,0.6c0.8,0,3.3,0,3.7,0
					c0.4,0,0.4-0.2,0.2-0.5c0-0.2-0.2-0.5-0.4-0.6c-0.4-0.4-0.5-0.6-0.6-1c-0.2-0.5-0.5-3.1-0.5-3.2c0-1-0.2-2,0.2-2.9
					c0.2-0.5,0.4-0.8,0.5-1.3c0-0.2,0.5-1.4,0.5-1.5c0.2-0.6,0.5-0.5,0.5,0c0,0.4-0.2,1.2,0,1.4c1.4,0.2,5.9,0.2,6.8-0.5
					c0.2-0.5,0.8-2.9,0.8-3.1c0.2-0.5,0.5-0.4,0.4,0.2c0,0.2-0.4,2.3-0.4,3.1c-0.2,1.5-0.5,3.1-0.6,4.5c-0.2,1.3-0.5,2.7-1.2,4
					c-0.2,0.4-0.4,0.8-0.4,1.2c-0.2,0.4,0,0.5,0.4,0.5h4.2c0.2,0,0.6,0.2,0-1.2c-0.4-0.8-0.5-1.7,0-2.5l0.6-2.3
					c0.2-0.2,1.8-3.9,2.3-4.9c0.2-0.4,2-4.3,2.2-4.7c0.2-0.4,0.2-0.5,0.2-1.2c0-0.4,0.2-0.8,0.4-1.2c0.8-1.3,1.7-2.7,2.5-4
					c0.4-0.5,0.6-1,1.4-1.2c0.5-0.2,1.2-0.2,1.7-0.4c0.2,0,0.5-0.2,0.5-0.4c0.2-0.4,0.4-0.5,0.6-0.5c0.4,0,1.7,0.4,2,0.4
					c0,0,3.5,0.8,5.4-0.6c0,0,0.4-0.4,0.5-0.5c0.2-0.2,0.5-0.4,0.6-0.6C222.7,40.3,222.9,40,223.1,39.6z M190.1,65.8L190.1,65.8
					c0,0,0.2-0.5,0.5-0.5s0.5,0.5,0.5,0.5l0,0V66l0,0L190.1,65.8C190.1,66,190.1,66,190.1,65.8C190.1,66,190.1,65.8,190.1,65.8z
					 M189.9,66L189.9,66h-0.8l0,0l0,0l0,0c0,0,0.2-0.4,0.5-0.4C189.7,65.5,189.9,65.8,189.9,66C189.9,65.8,189.9,65.8,189.9,66
					L189.9,66z M199.9,66L199.9,66H199l0,0l0,0l0,0c0,0,0.2-0.4,0.5-0.4C199.8,65.5,199.9,65.8,199.9,66
					C199.9,65.8,199.9,65.8,199.9,66L199.9,66z M201.4,65.8L201.4,65.8C201.4,65.8,201.4,66,201.4,65.8
					C201.4,66,201.4,66,201.4,65.8l-1,0.2l0,0c0,0,0,0,0-0.2l0,0c0,0,0.2-0.5,0.5-0.5C201.2,65.3,201.4,65.8,201.4,65.8z
					 M208.4,39.6c-0.2,0-0.8,0.2-1,0.4c0-0.4,0.2-1.2,0.2-1.2s0,0,0.2,0l0,0c0.4,0.4,0.4,0.8,0.4,0.8L208.4,39.6
					C208.4,39.5,208.4,39.5,208.4,39.6C208.6,39.5,208.6,39.6,208.4,39.6z M215.5,38.8C215.5,38.8,215.5,39,215.5,38.8
					c-0.2,0.2-0.2,0.4-0.2,0.4c-0.5,0.8-1.2,1.5-1.8,2.2c0,0-0.8,0.6-1.2,0.6h-0.2c-0.4,0-0.6-0.2-0.8-0.5s-0.2-0.5,0.4-0.6
					c1-0.4,2-1,2.9-1.7c0.4-0.2,0.5-0.5,0.6-0.6l0,0l0.2-0.2c0.4-0.5,0.8-1,1.2-1.5c0,0,0.2-0.2,0.2-0.4v0.2
					C216.5,36.9,215.8,38.3,215.5,38.8z"/>
			</g>
			<g>
				<path class="st9" d="M215.3,25.1c-0.4,0-0.6,0-0.8,0.5c0,0.2,0,0.2,0,0.4v0.2c-1.4,0.4-3.5,0.6-5.7,0.6c0,0-0.4,0-0.5,0
					c-0.2,0-0.4,0.2-0.2,0.2l0.6,3.1l0,0c0,0.2,0.4,0.4,1.2,0.4c0,0,2.7,0.4,6.8-0.8c0.2,0,0.2-0.2,0.2-0.4l0,0l0,0
					c0-0.5,0.6-0.5,0.8-0.5l-1-3.5C216.5,25.1,215.8,25.1,215.3,25.1z M211.1,29.7c0.5-1,1.2-1.8,1.5-2.7c1.5-0.2,2-0.4,2.9-0.6
					l0.6,2.5C214,29.7,212.3,29.7,211.1,29.7z"/>
			</g>
		</g>
	</g>
</g>
</svg>
