<svg id="Logos_Off" data-name="Logos Off" xmlns="http://www.w3.org/2000/svg" viewBox="0 0 230 90"><defs><style>.cls-1,.cls-2{fill:#373737;}.cls-1{isolation:isolate;}</style></defs><title>Artboard 1</title><g id="Diane_Von_Furstenberg" data-name="Diane Von Furstenberg"><path class="cls-1" d="M16.55,49.28h.79v-8h-.79Z"/><path class="cls-2" d="M23.14,41.32c0,.07-3.18,7.8-3.24,8h.82l.95-2.38h3.46L26,49.28h.85l-3.09-8ZM22,46.24h-.09l1.48-3.83,1.44,3.83Z"/><path class="cls-1" d="M29.46,41.32v8h.8V42.63l4.52,6.65h.78v-8h-.8V48l-4.52-6.65Z"/><path class="cls-1" d="M39.79,45.54h4v-.73h-4V42h4.43v-.73H39v8h5.46v-.73H39.79Z"/><path class="cls-1" d="M74.3,44.66H70.36V42h4.41v-.73h-5.2v8h.79v-3.9H74.3Z"/><path class="cls-1" d="M78.71,46.67V41.32h-.8v5.37a2.94,2.94,0,0,0,5.87,0V41.32H83v5.35a2.14,2.14,0,0,1-4.28,0Z"/><path class="cls-2" d="M90.71,45.71c1.43-.14,2.22-.91,2.22-2.16a2.14,2.14,0,0,0-2.34-2.22H87.07v8h.8V45.77h1.77l0,0,2.49,3.49h1l-2.55-3.57ZM87.87,45V42h2.45c1.24,0,1.82.48,1.82,1.49,0,.68-.33,1.5-1.94,1.5Z"/><path class="cls-1" d="M98.76,44.72h0c-1.12-.28-2.09-.53-2.09-1.57,0-.82.89-1.3,1.75-1.3a2.21,2.21,0,0,1,2.11,1.44v0l.71-.4h0a2.8,2.8,0,0,0-2.82-1.78,2.3,2.3,0,0,0-2.55,2c0,1.66,1.37,2,2.59,2.33s2.14.55,2.14,1.68c0,.94-.89,1.59-2.15,1.59A2.17,2.17,0,0,1,96.26,47v0l-.76.28v0a2.79,2.79,0,0,0,3,2.21c1.87,0,2.94-.89,2.94-2.44S100,45,98.76,44.72Z"/><path class="cls-1" d="M105.86,49.28h.8V42h2.48v-.73h-5.76V42h2.48Z"/><path class="cls-1" d="M112.72,45.54h4v-.73h-4V42h4.43v-.73h-5.22v8h5.46v-.73h-4.67Z"/><path class="cls-1" d="M120.39,41.32v8h.79V42.63l4.53,6.65h.77v-8h-.8V48l-4.52-6.65Z"/><path class="cls-2" d="M134.12,45a1.63,1.63,0,0,0,1.57-1.8c0-.7-.5-1.88-2.38-1.88h-3.43v8h3.5c1.91,0,2.59-1.15,2.59-2.22A1.93,1.93,0,0,0,134.12,45ZM130.67,42h2.48c1.23,0,1.74.38,1.74,1.29s-.64,1.31-1.8,1.31h-2.41Zm2.72,6.51h-2.72V45.39h2.45c1.29,0,2.05.63,2.05,1.68C135.18,47.78,134.71,48.55,133.39,48.55Z"/><path class="cls-1" d="M139.9,45.54h4v-.73h-4V42h4.43v-.73h-5.23v8h5.46v-.73H139.9Z"/><path class="cls-2" d="M151.24,45.71c1.43-.14,2.22-.91,2.22-2.16a2.14,2.14,0,0,0-2.33-2.22h-3.53v8h.8V45.77h1.77l2.52,3.52h1l-2.55-3.57ZM148.39,45V42h2.45c1.24,0,1.82.48,1.82,1.49,0,.68-.34,1.5-1.94,1.5Z"/><path class="cls-1" d="M161.78,47.69h0a2.74,2.74,0,0,1-2.28,1.05c-2.64,0-2.84-2.64-2.84-3.45,0-1.72.88-3.45,2.85-3.45a2.36,2.36,0,0,1,2.34,1.65v0l.72-.38h0a3.11,3.11,0,0,0-3.12-2c-2.48,0-3.59,2.1-3.59,4.18,0,2.66,1.33,4.18,3.64,4.18a3.2,3.2,0,0,0,3-1.53s0-2.41,0-2.52h-3v.73h2.28Z"/><path class="cls-2" d="M9.74,41.32H7.25v8H9.74a4,4,0,0,0,0-8Zm0,7.17H8V42.12H9.74a3.18,3.18,0,0,1,0,6.37Z"/><path class="cls-1" d="M48.47,44.66h-.72l1.59,4.62h.55l1.84-4.62H51l-1.34,3.45Z"/><path class="cls-2" d="M56.66,44.56A2.41,2.41,0,1,0,58.93,47,2.22,2.22,0,0,0,56.66,44.56Zm0,4.2A1.81,1.81,0,1,1,58.23,47,1.6,1.6,0,0,1,56.66,48.76Z"/><path class="cls-1" d="M61.93,44.68v4.6h.64V45.69l2.6,3.57h.62v-4.6h-.64v3.58l-2.58-3.56Z"/><polygon class="cls-2" points="190.66 43.22 189.12 43.22 186.15 46.38 186.15 39.51 184.87 39.51 184.87 50.65 186.15 50.65 186.15 48.03 187.05 47.09 189.72 50.65 191.29 50.65 187.9 46.15 190.66 43.22"/><path class="cls-2" d="M192.1,43.22v7.43h1.26V47.21a3.54,3.54,0,0,1,.32-1.88,1.91,1.91,0,0,1,1.72-.88,4.83,4.83,0,0,1,.52,0V43.12a2.7,2.7,0,0,0-2.56,1.45V43.22Z"/><path class="cls-2" d="M201.47,46.2V46c0-.77,0-2.07-1.67-2.07s-1.59,1.17-1.59,1.56l-1.33-.08a2.9,2.9,0,0,1,.3-1.12A2.71,2.71,0,0,1,199.75,43a3.74,3.74,0,0,1,2.18.63,2.75,2.75,0,0,1,.81,2.51v2.41c0,.71,0,1.07.54,1.07a1.06,1.06,0,0,0,.41-.08v1.09a2.93,2.93,0,0,1-.79.13,1.15,1.15,0,0,1-1.29-1.1A3.35,3.35,0,0,1,199,50.86a2.26,2.26,0,0,1-2.53-2.13,2,2,0,0,1,.33-1.12c.43-.63,1.21-1.14,3.44-1.31Zm-1.94,1.15c-1.39.3-1.63.82-1.63,1.34s.47,1.1,1.4,1.1a2,2,0,0,0,2-1.12,3.27,3.27,0,0,0,.21-1.67C201,47.09,200.34,47.18,199.53,47.35Z"/><polygon class="cls-2" points="207.38 48.92 205.4 43.22 204.09 43.22 206.81 50.65 207.94 50.65 210.63 43.22 209.33 43.22 207.38 48.92"/><path class="cls-2" d="M218.42,48.36a3.37,3.37,0,0,1-3.36,2.51c-2.21,0-3.65-1.5-3.65-4A3.58,3.58,0,0,1,215,43a3.24,3.24,0,0,1,3.27,2.64,6.74,6.74,0,0,1,.14,1.52h-5.65a2.48,2.48,0,0,0,2.4,2.79,2,2,0,0,0,2-1.74ZM217,46.23a2.14,2.14,0,0,0-2.13-2.29c-1.07,0-2,.79-2.11,2.29Z"/><path class="cls-2" d="M221.77,40.87h-1.29v2.35h-1.18v1h1.18v4.83c0,1,0,1.69,1.44,1.69a8.5,8.5,0,0,0,1.21-.13v-1a3.18,3.18,0,0,1-.82.17c-.54,0-.54-.38-.54-1.26V44.26h1.36v-1h-1.36Z"/><rect class="cls-2" x="173.55" y="39.21" width="0.24" height="11.91"/></g></svg>