<svg id="Logos_Off" data-name="Logos Off" xmlns="http://www.w3.org/2000/svg" viewBox="0 0 230 90"><defs><style>.cls-1{fill:#393736;}</style></defs><title>Artboard 1</title><g id="Echo"><path class="cls-1" d="M128.46,43.37c-.11-1-.56-1.25-.92-1.25a1.77,1.77,0,0,0-1.16.65,9.42,9.42,0,0,0-.63.71,5.51,5.51,0,0,1-1.2,1.16,10.12,10.12,0,0,1-3.72,1.56l-.39.1a3.79,3.79,0,0,1-1,.19c-.39,0-.87-.13-1-1.17l0-.25a2.86,2.86,0,0,0-.37-1.17,3.43,3.43,0,0,0-1.38-1.12,3.09,3.09,0,0,0-1.27-.23l-.56,0-.51,0a2.53,2.53,0,0,1-.66-.07c-.3-.08-.57-.18-.83-.27a5,5,0,0,0-2-.4,8.83,8.83,0,0,0-3.73.89,8.42,8.42,0,0,0-4.29,4.83A6,6,0,0,1,101,50.66a6.12,6.12,0,0,1-3.31,1.43A2.26,2.26,0,0,1,97,52c-2-.57-1.34-3.52-.89-5.68.12-.55.22-1,.26-1.4a4.39,4.39,0,0,0-4.06-4.63,7,7,0,0,0-1.15,0l-.75,0c-.64,0-.81-.11-.85-.18-.28-.43.1-1.81.27-2.48,0-.15.08-.29.1-.4a51.87,51.87,0,0,1,2.17-6.6c.06-.15.16-.36.26-.57.37-.76.84-1.7.57-2.38a1.79,1.79,0,0,0-1.8-.93,2.83,2.83,0,0,0-.86.13c-1,.34-1.56,1.52-2,2.38l-.2.41a17,17,0,0,0-1.22,3.92l-.06.27c-.14.62-.31,1.25-.47,1.85-.22.82-.45,1.66-.61,2.51-.41,2.12-.89,4.16-1.45,6l-.24.82a12.59,12.59,0,0,1-1.87,4.42A12.39,12.39,0,0,1,76.63,53a7.33,7.33,0,0,1-2.41.41c-3.16,0-4.11-1.88-4.38-2.68a4.84,4.84,0,0,1,.56-4.29A3.79,3.79,0,0,1,74.14,45c.87.12,1,.34,1.23,1l.2.45c.38.8.85,1,1.18,1a1.46,1.46,0,0,0,1.08-.6,3.16,3.16,0,0,0,.75-2.26c-.26-1.61-2.15-2.44-3.8-2.53a6.73,6.73,0,0,0-5,1.8A18.62,18.62,0,0,0,68,45.76a9.26,9.26,0,0,0-.66,1l-.07.12a7.4,7.4,0,0,1-.69,1c-.37.42-.75.82-1.16,1.2a16,16,0,0,1-2.9,2.13,20.62,20.62,0,0,1-3.63,2,9,9,0,0,1-2.89.77,3.83,3.83,0,0,1-3-.87c-3.09-2.61-.87-7.87,2.61-10.32,1.65-1.16,3.58-1.39,4.93-1.82.95-.3,1.61-.7,1.66-1.59s-1.77-1.26-3.4-2.72a3.39,3.39,0,0,1-1.06-1.79,5.79,5.79,0,0,1,.07-1.2c.5-3.08,3.61-4,6.81-3.06.29.09.73.24,1.19.35a2,2,0,0,0,1.63-.09c1.23-1,.1-2-.87-2.55C63,26.21,57.17,27.14,54.73,30.7a6.43,6.43,0,0,0-1,2.38A5.38,5.38,0,0,0,54,35.95c.38,1,1.37,2.47.79,3l-.08.07a43,43,0,0,0-3.68,2.72,12.24,12.24,0,0,0-2.26,3.06c-1.57,2.75-2.3,7-.29,9.77a8.56,8.56,0,0,0,7.16,3c2.86-.18,5.14-2,7.41-3.55.72-.5,1.87-1.49,2.85-1.5h.26c.73.11,1.33.84,1.91,1.55a6.67,6.67,0,0,0,1.21,1.25,6.25,6.25,0,0,0,3.6,1.13,6.35,6.35,0,0,0,2.35-.45c.53-.21,1.13-.5,1.76-.81a15.09,15.09,0,0,1,4.17-1.55h.21c0,.06,0,.14,0,.19A1.32,1.32,0,0,0,81.61,55a1.52,1.52,0,0,0,1.14.52,2.31,2.31,0,0,0,1.82-1.13,13,13,0,0,0,1.38-2.76,20.8,20.8,0,0,0,.73-2.6,11.36,11.36,0,0,1,1.18-3.36,5.1,5.1,0,0,1,3.64-2.05,1.5,1.5,0,0,1,1.23.53c.48.59.29,1.33.1,2.11,0,.18-.09.36-.12.54a25,25,0,0,0-.36,3.05l0,.27a6.87,6.87,0,0,0,.54,2.73,3.82,3.82,0,0,0,3.77,2.31,6.29,6.29,0,0,0,3-.79l.19-.11a6.28,6.28,0,0,1,2.92-1.09,2.71,2.71,0,0,1,1.25.31,3.32,3.32,0,0,1,.82.62,4.61,4.61,0,0,0,.84.67,7.46,7.46,0,0,0,2.77,1,8.44,8.44,0,0,0,7-2.2l.33-.26A9.8,9.8,0,0,0,117.32,52a6.25,6.25,0,0,0,.52-.77,5,5,0,0,1,.46-.68,4,4,0,0,1,2-.88c.36-.1.7-.19,1-.31a15.39,15.39,0,0,1,1.69-.51,8.58,8.58,0,0,0,3.26-1.35C127.2,46.68,128.63,44.94,128.46,43.37Zm-13.64,6.85a4.42,4.42,0,0,1-2.77,1.7l-.41,0a5.13,5.13,0,0,1-4.12-2.19,3.59,3.59,0,0,1-.58-2.91,2.65,2.65,0,0,1,1.45-1.77l.17-.09a5.62,5.62,0,0,1,2.27-.75,1.54,1.54,0,0,1,.69.15c.78.37,1,1,1.22,1.84l0,.06a3.63,3.63,0,0,0,1.37,2.32l.14.1c.44.29.78.53.82.78A1.07,1.07,0,0,1,114.82,50.22Zm2-4.42c-.09.23-.21.27-.31.27h0a1.76,1.76,0,0,1-1.28-1.26c0-.09,0-.13,0-.14s.11-.09.35-.11h0a1.6,1.6,0,0,1,1.06.69A.65.65,0,0,1,116.86,45.79Z"/><polygon class="cls-1" points="156.15 46.31 154.63 46.31 151.72 49.41 151.72 42.67 150.47 42.67 150.47 53.6 151.72 53.6 151.72 51.03 152.6 50.1 155.22 53.6 156.77 53.6 153.44 49.19 156.15 46.31"/><path class="cls-1" d="M157.56,46.31V53.6h1.24V50.23a3.47,3.47,0,0,1,.31-1.84,1.88,1.88,0,0,1,1.69-.87,4.74,4.74,0,0,1,.51,0V46.22a2.65,2.65,0,0,0-2.51,1.42V46.31Z"/><path class="cls-1" d="M166.76,49.24v-.19c0-.76,0-2-1.64-2s-1.56,1.15-1.56,1.53l-1.3-.08a2.84,2.84,0,0,1,.29-1.1,2.66,2.66,0,0,1,2.52-1.3,3.67,3.67,0,0,1,2.14.62,2.7,2.7,0,0,1,.79,2.46v2.37c0,.7,0,1.05.53,1.05a1,1,0,0,0,.4-.08v1.07a2.87,2.87,0,0,1-.77.12,1.13,1.13,0,0,1-1.27-1.08,3.29,3.29,0,0,1-2.51,1.19,2.22,2.22,0,0,1-2.48-2.09,2,2,0,0,1,.33-1.1c.42-.62,1.19-1.11,3.38-1.29Zm-1.9,1.13c-1.36.29-1.59.81-1.59,1.32s.46,1.08,1.38,1.08a2,2,0,0,0,1.94-1.1,3.2,3.2,0,0,0,.2-1.64C166.29,50.1,165.64,50.2,164.85,50.37Z"/><polygon class="cls-1" points="172.55 51.9 170.61 46.31 169.32 46.31 171.99 53.6 173.1 53.6 175.74 46.31 174.47 46.31 172.55 51.9"/><path class="cls-1" d="M183.39,51.36a3.31,3.31,0,0,1-3.3,2.46c-2.17,0-3.58-1.47-3.58-3.93A3.51,3.51,0,0,1,180,46.08a3.18,3.18,0,0,1,3.21,2.59,6.61,6.61,0,0,1,.14,1.49h-5.54a2.43,2.43,0,0,0,2.35,2.74,1.93,1.93,0,0,0,1.94-1.7ZM182,49.27A2.1,2.1,0,0,0,179.95,47c-1.05,0-1.94.77-2.08,2.25Z"/><path class="cls-1" d="M186.67,44H185.4v2.31h-1.16v1h1.16v4.74c0,1,0,1.66,1.41,1.66A8.34,8.34,0,0,0,188,53.6v-1a3.12,3.12,0,0,1-.81.17c-.53,0-.53-.37-.53-1.24V47.33H188v-1h-1.33Z"/><rect class="cls-1" x="139.36" y="42.38" width="0.23" height="11.68"/></g></svg>